<?xml version="1.0" encoding="UTF-8" standalone="no"?>
<svg width="301px" height="50px" viewBox="0 0 301 50" version="1.1" xmlns="http://www.w3.org/2000/svg" xmlns:xlink="http://www.w3.org/1999/xlink">
    <!-- Generator: sketchtool 43.2 (39069) - http://www.bohemiancoding.com/sketch -->
    <title>318BAA52-2DB3-4C0C-91C4-CA86002AB24C</title>
    <desc>Created with sketchtool.</desc>
    <defs></defs>
    <g id="Page-1" stroke="none" stroke-width="1" fill="none" fill-rule="evenodd">
        <g id="contact" transform="translate(-247.000000, -983.000000)">
            <g id="twitter-button" transform="translate(247.000000, 983.000000)">
                <rect id="Rectangle-3-Copy" fill="#00B3FA" x="0" y="0" width="300.021625" height="50" rx="5"></rect>
                <text id="FOLLOW-US-ON-TWITTER" font-family="AvenirNext-Bold, Avenir Next" font-size="12" font-weight="bold" letter-spacing="1.575" fill="#FFFFFF">
                    <tspan x="63" y="28">FOLLOW US ON TWITTER</tspan>
                </text>
                <path d="M32.1184876,18.7724764 C32.9888501,18.2253271 33.6566906,17.3577408 33.9701175,16.3242366 C33.1552075,16.8321229 32.2547078,17.1994222 31.2939337,17.3982704 C30.5272432,16.5370169 29.4314544,16 28.2187333,16 C25.8921411,16 24.0067575,17.9821496 24.0067575,20.4265897 C24.0067575,20.7736242 24.0417167,21.1117929 24.114046,21.434763 C20.6133083,21.2498468 17.5091761,19.4893433 15.429709,16.809325 C15.0668571,17.4653975 14.8595131,18.2253271 14.8595131,19.0359186 C14.8595131,20.5709763 15.6032993,21.9261841 16.7340472,22.721577 C16.0433025,22.6987791 15.3935444,22.4973978 14.8245539,22.168095 L14.8245539,22.2225566 C14.8245539,24.3680911 16.2759617,26.1577252 18.2059483,26.563021 C17.8515348,26.666878 17.4802444,26.7188066 17.0944882,26.7188066 C16.8232534,26.7188066 16.558046,26.692209 16.3024825,26.6402805 C16.8377192,28.3982509 18.3940045,29.6799988 20.2384014,29.7141956 C18.7954321,30.9022188 16.9787613,31.6089533 15.0053772,31.6089533 C14.6654295,31.6089533 14.3290983,31.5899551 14,31.548159 C15.8648902,32.8033093 18.0793721,33.5366413 20.4590058,33.5366413 C28.2102949,33.5366413 32.4463804,26.7909999 32.4463804,20.9408087 C32.4463804,20.7482932 32.4439694,20.5570443 32.435531,20.3683285 C33.2588795,19.7439197 33.9749395,18.9637253 34.5379024,18.0758743 C33.7820613,18.427975 32.9695623,18.6660862 32.1184876,18.7724764 Z" id="Shape" fill="#FFFFFF"></path>
            </g>
        </g>
    </g>
</svg>