<?xml version="1.0" encoding="UTF-8" standalone="no"?>
<svg width="20px" height="20px" viewBox="0 0 20 20" version="1.1" xmlns="http://www.w3.org/2000/svg" xmlns:xlink="http://www.w3.org/1999/xlink">
    <!-- Generator: Sketch 43.2 (39069) - http://www.bohemiancoding.com/sketch -->
    <title>i1 fb copy</title>
    <desc>Created with Sketch.</desc>
    <defs></defs>
    <g id="Page-1" stroke="none" stroke-width="1" fill="none" fill-rule="evenodd">
        <g id="lookout---result" transform="translate(-331.000000, -167.000000)" fill="#3B579D">
            <g id="1" transform="translate(330.000000, 164.000000)">
                <path d="M18.3048913,3 L3.69505975,3 C2.20664897,3 1,4.20660005 1,5.69505975 L1,20.3049892 C1,21.7934489 2.20660005,23.0000489 3.69505975,23.0000489 L10.900559,23.0000489 L10.9128393,15.8531135 L9.05606859,15.8531135 C8.81476815,15.8531135 8.61891948,15.6579987 8.6179899,15.4166983 L8.60908546,13.1129445 C8.60815588,12.870323 8.80459166,12.6731534 9.04721308,12.6731534 L10.9006079,12.6731534 L10.9006079,10.4471421 C10.9006079,7.8638771 12.4783077,6.45726971 14.7827464,6.45726971 L16.673716,6.45726971 C16.9156525,6.45726971 17.1118436,6.65341194 17.1118436,6.89539734 L17.1118436,8.83793437 C17.1118436,9.07982191 16.9157993,9.27591521 16.6739606,9.27606199 L15.5134973,9.27660017 C14.2602713,9.27660017 14.0176009,9.87212104 14.0176009,10.7460768 L14.0176009,12.6732023 L16.7713713,12.6732023 C17.0337586,12.6732023 17.2373375,12.9023203 17.2064166,13.1628974 L16.9333635,15.4666512 C16.9072373,15.6871094 16.7202931,15.8532113 16.4983182,15.8532113 L14.0298812,15.8532113 L14.0176009,23.0001468 L18.3049892,23.0001468 C19.7934,23.0001468 21,21.7935467 21,20.305136 L21,5.69505975 C20.9999511,4.20660005 19.793351,3 18.3048913,3" id="i1-fb-copy"></path>
            </g>
        </g>
    </g>
</svg>