<?xml version="1.0" encoding="UTF-8" standalone="no"?>
<svg width="19px" height="20px" viewBox="0 0 19 20" version="1.1" xmlns="http://www.w3.org/2000/svg" xmlns:xlink="http://www.w3.org/1999/xlink">
    <!-- Generator: Sketch 43.2 (39069) - http://www.bohemiancoding.com/sketch -->
    <title>i4 line copy</title>
    <desc>Created with Sketch.</desc>
    <defs></defs>
    <g id="Page-1" stroke="none" stroke-width="1" fill="none" fill-rule="evenodd">
        <g id="lookout---result" transform="translate(-330.000000, -1458.000000)">
            <g id="5" transform="translate(330.000000, 1455.000000)">
                <g id="i4-line-copy" transform="translate(0.000000, 3.000000)">
                    <g id="Group-26" transform="translate(0.000000, 0.037679)">
                        <path d="M15.5399417,0.0547956266 L3.50053889,0.0547956266 C1.61017083,0.0522388562 0.0577125,1.6134836 0.0549416667,3.54196131 L0.0549416667,15.8206493 C0.0525666667,17.7492616 1.58351806,19.3327098 3.47415,19.3352666 L15.5136847,19.3352666 C17.4044486,19.3376888 18.9563792,17.7765786 18.95915,15.8476972 L18.95915,3.56887468 C18.9619208,1.64026241 17.4311014,0.0574869638 15.5399417,0.0547956266" id="Fill-15" fill="#00B900"></path>
                        <path d="M16.3591847,8.84731371 C16.3591847,5.70625399 13.2716847,3.15082927 9.47630278,3.15082927 C5.68144861,3.15082927 2.59355278,5.70625399 2.59355278,8.84731371 C2.59355278,11.6632599 5.04217778,14.0215442 8.34976111,14.4674987 C8.57393472,14.5166156 8.87899028,14.6182136 8.95617778,14.8134701 C9.02558056,14.9910984 9.00156667,15.2691135 8.97834444,15.4483566 C8.97834444,15.4483566 8.89759444,15.9436972 8.88017778,16.0491976 C8.85022639,16.2265568 8.7419,16.7432935 9.47630278,16.4275997 C10.2109694,16.1119058 13.4401778,14.0472464 14.8841778,12.3521077 L14.8839139,12.3521077 C15.8814139,11.2365484 16.3591847,10.1044373 16.3591847,8.84731371" id="Fill-16" fill="#FFFFFF"></path>
                        <path d="M8.07786319,7.32942641 L7.59507847,7.32942641 C7.52105764,7.32942641 7.46089097,7.39065433 7.46089097,7.46587721 L7.46089097,10.524582 C7.46089097,10.5999394 7.52105764,10.6610328 7.59507847,10.6610328 L8.07786319,10.6610328 C8.15188403,10.6610328 8.21191875,10.5999394 8.21191875,10.524582 L8.21191875,7.46587721 C8.21191875,7.39065433 8.15188403,7.32942641 8.07786319,7.32942641" id="Fill-17" fill="#00B900"></path>
                        <path d="M11.40095,7.32942641 L10.9181653,7.32942641 C10.8440125,7.32942641 10.7839778,7.39065433 10.7839778,7.46587721 L10.7839778,9.28306812 L9.40977639,7.39011606 C9.40660972,7.38527166 9.40291528,7.38069638 9.39935278,7.37625568 L9.39842917,7.37544828 C9.39579028,7.37235324 9.39315139,7.3696619 9.39038056,7.36697056 C9.38945694,7.36616316 9.38879722,7.36549033 9.38787361,7.36468293 C9.38563056,7.36252986 9.38325556,7.36051135 9.38061667,7.35862742 C9.37969306,7.35755088 9.37837361,7.35674348 9.37731806,7.35580151 C9.37494306,7.35418671 9.37256806,7.35243734 9.37019306,7.35095711 C9.36900556,7.35001514 9.36755417,7.34920774 9.36623472,7.3485349 C9.36385972,7.34705467 9.36135278,7.34557443 9.35897778,7.34436333 C9.35765833,7.3436905 9.35620694,7.3428831 9.3548875,7.34234483 C9.35238056,7.34113373 9.34987361,7.33992262 9.34723472,7.33898066 C9.34551944,7.33844239 9.34433194,7.33790412 9.34274861,7.33736585 C9.34010972,7.33642389 9.33747083,7.33548192 9.3347,7.33480908 C9.33338056,7.33427082 9.33166528,7.33400168 9.33021389,7.33346341 C9.327575,7.33292515 9.32506806,7.33225231 9.32256111,7.33171405 C9.32058194,7.33144491 9.31873472,7.33117578 9.3168875,7.33104121 C9.3145125,7.33050294 9.31200556,7.33036838 9.30963056,7.33009924 C9.30751944,7.32983011 9.30527639,7.32983011 9.30290139,7.32969554 C9.30105417,7.32969554 9.29986667,7.32942641 9.29801944,7.32942641 L8.81549861,7.32942641 C8.74147778,7.32942641 8.68131111,7.39065433 8.68131111,7.46587721 L8.68131111,10.524582 C8.68131111,10.5999394 8.74147778,10.6610328 8.81549861,10.6610328 L9.29801944,10.6610328 C9.37230417,10.6610328 9.43233889,10.5999394 9.43233889,10.524582 L9.43233889,8.70792935 L10.8083875,10.6033036 C10.8178875,10.6170294 10.8296306,10.6281985 10.8424292,10.6370799 C10.842825,10.637349 10.8432208,10.6377527 10.8436167,10.6381564 C10.8465194,10.6399058 10.8491583,10.6416552 10.8520611,10.64327 C10.8533806,10.6440774 10.8544361,10.6446156 10.8557556,10.6452885 C10.8578667,10.6464996 10.8599778,10.6475761 10.8622208,10.6485181 C10.8644639,10.6494601 10.8663111,10.650402 10.8688181,10.651344 C10.8701375,10.6518823 10.871325,10.6524205 10.8726444,10.6528242 C10.8759431,10.6540353 10.8788458,10.6549773 10.8817486,10.6559193 C10.8824083,10.6559193 10.8830681,10.6561884 10.8838597,10.656323 C10.8946792,10.6592834 10.9062903,10.6610328 10.9181653,10.6610328 L11.40095,10.6610328 C11.4751028,10.6610328 11.5350056,10.5999394 11.5350056,10.524582 L11.5350056,7.46587721 C11.5350056,7.39065433 11.4751028,7.32942641 11.40095,7.32942641" id="Fill-18" fill="#00B900"></path>
                        <path d="M6.91413958,9.89513204 L5.60234792,9.89513204 L5.60234792,7.4660656 C5.60234792,7.39057359 5.54231319,7.32934567 5.46842431,7.32934567 L4.98550764,7.32934567 C4.91148681,7.32934567 4.85145208,7.39057359 4.85145208,7.4660656 L4.85145208,10.5242321 L4.85145208,10.5245013 C4.85145208,10.561238 4.86583403,10.594476 4.88892431,10.6189672 C4.88945208,10.61964 4.88997986,10.6203129 4.89077153,10.6209857 C4.89143125,10.6216585 4.89209097,10.6221968 4.89275069,10.6228696 C4.91689653,10.6465534 4.94935486,10.6610866 4.98537569,10.6610866 L4.98550764,10.6610866 L6.91413958,10.6610866 C6.98816042,10.6610866 7.04793125,10.5997241 7.04793125,10.5242321 L7.04793125,10.031852 C7.04793125,9.95635997 6.98816042,9.89513204 6.91413958,9.89513204" id="Fill-19" fill="#00B900"></path>
                        <path d="M14.0670326,8.09530025 C14.1410535,8.09530025 14.2008243,8.0342069 14.2008243,7.95858032 L14.2008243,7.46620017 C14.2008243,7.39070816 14.1410535,7.32934567 14.0670326,7.32934567 L12.1384007,7.32934567 L12.1381368,7.32934567 C12.1018521,7.32934567 12.0692618,7.34414802 12.0452479,7.36796636 C12.0447201,7.36850463 12.0440604,7.36890833 12.0436646,7.36944659 C12.0428729,7.37025399 12.0422132,7.3710614 12.0414215,7.3718688 C12.0185951,7.39635997 12.0043451,7.42946341 12.0043451,7.4660656 L12.0043451,7.46620017 L12.0043451,10.5243667 L12.0043451,10.5245013 C12.0043451,10.561238 12.0187271,10.594476 12.0416854,10.6189672 C12.0423451,10.61964 12.0430049,10.6204474 12.0436646,10.6209857 C12.0441924,10.6216585 12.044984,10.6223314 12.0456438,10.6228696 C12.0695257,10.6464188 12.102116,10.6610866 12.1381368,10.6610866 L12.1384007,10.6610866 L14.0670326,10.6610866 C14.1410535,10.6610866 14.2008243,10.5997241 14.2008243,10.5243667 L14.2008243,10.031852 C14.2008243,9.95649453 14.1410535,9.89513204 14.0670326,9.89513204 L12.7553729,9.89513204 L12.7553729,9.37812616 L14.0670326,9.37812616 C14.1410535,9.37812616 14.2008243,9.31689823 14.2008243,9.24140622 L14.2008243,8.74902607 C14.2008243,8.67353406 14.1410535,8.61217157 14.0670326,8.61217157 L12.7553729,8.61217157 L12.7553729,8.09530025 L14.0670326,8.09530025 Z" id="Fill-20" fill="#00B900"></path>
                    </g>
                </g>
            </g>
        </g>
    </g>
</svg>