<?xml version="1.0" encoding="UTF-8" standalone="no"?>
<svg width="18px" height="18px" viewBox="0 0 18 18" version="1.1" xmlns="http://www.w3.org/2000/svg" xmlns:xlink="http://www.w3.org/1999/xlink">
    <!-- Generator: Sketch 43.2 (39069) - http://www.bohemiancoding.com/sketch -->
    <title>i8 skype copy</title>
    <desc>Created with Sketch.</desc>
    <defs></defs>
    <g id="Page-1" stroke="none" stroke-width="1" fill="none" fill-rule="evenodd">
        <g id="lookout---result" transform="translate(-331.000000, -2749.000000)">
            <g id="9" transform="translate(330.000000, 2746.000000)">
                <g id="i8-skype-copy" transform="translate(1.000000, 3.000000)">
                    <path d="M17.4113846,10.9383077 C17.5402308,10.3541538 17.6084615,9.75023077 17.6084615,9.12876923 C17.6084615,4.47284615 13.7809231,0.697307692 9.05830769,0.697307692 C8.56038462,0.697307692 8.07184615,0.74 7.59676923,0.820538462 C6.83261538,0.345461538 5.92815385,0.0699230769 4.95915385,0.0699230769 C2.21961538,0.0699230769 0,2.25923077 0,4.96053846 C0,5.86253846 0.249384615,6.70753846 0.681153846,7.43407692 C0.567615385,7.98123077 0.508076923,8.54830769 0.508076923,9.12876923 C0.508076923,13.7865385 4.33561538,17.4211538 9.05769231,17.4211538 C9.59284615,17.4211538 10.116,17.3724615 10.6232308,17.2802308 C11.3215385,17.6498462 12.1196154,17.9999231 12.9675385,17.9999231 C15.7067692,17.9999231 17.9260769,15.8112308 17.9260769,13.1098462 C17.9260769,12.3304615 17.7406923,11.5927692 17.4113846,10.9383077 Z" id="Fill-1" fill="#00ADF2"></path>
                    <path d="M12.9579231,12.5702308 C12.628,13.0392308 12.1451538,13.4079231 11.5093077,13.6726923 C10.8734615,13.9400769 10.1204615,14.0723077 9.24938462,14.0723077 C8.20461538,14.0723077 7.34284615,13.8908462 6.66346154,13.5272308 C6.18269231,13.2661538 5.79115385,12.9163846 5.48976923,12.4806923 C5.18930769,12.0446923 5.03876923,11.6200769 5.03876923,11.2072308 C5.03876923,10.9686154 5.12892308,10.7633846 5.30923077,10.5936154 C5.48976923,10.4217692 5.71992308,10.337 5.99846154,10.337 C6.22476923,10.337 6.41676923,10.4028462 6.57269231,10.5365385 C6.72953846,10.6693846 6.86330769,10.8658462 6.97323077,11.1276154 C7.10815385,11.4386154 7.25330769,11.6979231 7.41076923,11.9058462 C7.56638462,12.1134615 7.78723077,12.2862308 8.07061538,12.4211538 C8.35515385,12.5551538 8.729,12.6233846 9.19053846,12.6233846 C9.82569231,12.6233846 10.3422308,12.4878462 10.7400769,12.2150769 C11.1366923,11.9433846 11.3362308,11.6020769 11.3362308,11.1949231 C11.3362308,10.8721538 11.2286923,10.6080769 11.0146923,10.4082308 C10.7998462,10.2066154 10.5231538,10.0524615 10.1839231,9.94669231 C9.84461538,9.83946154 9.39092308,9.72646154 8.82184615,9.60715385 C8.06161538,9.444 7.42461538,9.25138462 6.91253846,9.03292308 C6.39992308,8.81269231 5.99215385,8.514 5.692,8.136 C5.39030769,7.75623077 5.24038462,7.28561538 5.24038462,6.72376923 C5.24038462,6.18707692 5.39876923,5.71146154 5.71692308,5.295 C6.03484615,4.87823077 6.49338462,4.55846154 7.09646154,4.33430769 C7.698,4.11015385 8.40623077,3.99869231 9.21907692,3.99869231 C9.869,3.99869231 10.4311538,4.07323077 10.9059231,4.22046154 C11.3803846,4.36946154 11.7731538,4.56692308 12.0856154,4.81269231 C12.3987692,5.05876923 12.628,5.31630769 12.7719231,5.587 C12.9164615,5.856 12.9888462,6.12130769 12.9888462,6.377 C12.9888462,6.61169231 12.8990769,6.82438462 12.7187692,7.01223077 C12.5384615,7.20030769 12.3130769,7.295 12.0435385,7.295 C11.7977692,7.295 11.6111538,7.23784615 11.4834615,7.12546154 C11.3557692,7.01223077 11.2172308,6.82738462 11.0688462,6.57023077 C10.8756154,6.20269231 10.6454615,5.91576923 10.3753077,5.71023077 C10.1051538,5.50407692 9.67276923,5.401 9.07538462,5.401 C8.52253846,5.401 8.07538462,5.51192308 7.73584615,5.73669231 C7.39661538,5.95961538 7.22623077,6.22946154 7.22623077,6.54376923 C7.22623077,6.73753846 7.28515385,6.90676923 7.39992308,7.04853846 C7.51469231,7.19130769 7.674,7.31176923 7.87707692,7.41338462 C8.07846154,7.51523077 8.28338462,7.59484615 8.49007692,7.65376923 C8.69684615,7.71146154 9.03907692,7.79469231 9.51623077,7.90584615 C10.1123846,8.03415385 10.6529231,8.17630769 11.137,8.331 C11.6204615,8.48607692 12.0330769,8.67507692 12.3723077,8.895 C12.7112308,9.11676923 12.9768462,9.398 13.1667692,9.73753846 C13.3566923,10.0759231 13.4525385,10.4911538 13.4525385,10.9830769 C13.4528462,11.5713846 13.2869231,12.1008462 12.9579231,12.5702308 Z" id="Fill-2" fill="#FFFFFF"></path>
                </g>
            </g>
        </g>
    </g>
</svg>