<?xml version="1.0" encoding="UTF-8" standalone="no"?>
<svg width="19px" height="19px" viewBox="0 0 19 19" version="1.1" xmlns="http://www.w3.org/2000/svg" xmlns:xlink="http://www.w3.org/1999/xlink">
    <!-- Generator: Sketch 43.2 (39069) - http://www.bohemiancoding.com/sketch -->
    <title>i10 snapchat copy</title>
    <desc>Created with Sketch.</desc>
    <defs></defs>
    <g id="Page-1" stroke="none" stroke-width="1" fill="none" fill-rule="evenodd">
        <g id="lookout---result" transform="translate(-332.000000, -3394.000000)">
            <g id="11" transform="translate(330.000000, 3391.000000)">
                <g id="i10-snapchat-copy" transform="translate(2.000000, 3.000000)">
                    <rect id="Rectangle-39" fill="#FFFC00" x="-1.09514335e-05" y="0" width="18.7150009" height="18.7150009" rx="4"></rect>
                    <path d="M9.10165777,15.0421738 C9.07095837,15.0421738 9.04067781,15.0415379 9.010619,15.0400705 C8.98979958,15.0415379 8.96856131,15.0421738 8.94712592,15.0421738 C8.1355627,15.0421738 7.72979341,14.8025739 7.28342009,14.4893356 C6.98024496,14.2766622 6.71890579,14.0932143 6.42100327,14.0441791 C6.26309597,14.0183042 6.10708582,14.004951 5.95718598,14.004951 C5.68702627,14.004951 5.46919846,14.0471139 5.30983749,14.0781981 C5.19903874,14.0994752 5.09706054,14.1193094 5.00897837,14.1193094 C4.74867401,14.1193094 4.65869468,13.9460843 4.62841413,13.8427802 C4.59835532,13.7407479 4.57627934,13.6422373 4.55526281,13.5468571 C4.54075081,13.480091 4.51529938,13.3648766 4.49344515,13.308749 C3.49729127,13.1518119 2.96810839,12.9278642 2.82912335,12.6052346 C2.80852567,12.5568108 2.79738913,12.5088028 2.79465427,12.4610149 C2.78497139,12.2890615 2.90735017,12.1379695 3.07890713,12.1099913 C4.7324866,11.8397475 5.48119734,10.1478498 5.5123156,10.07585 C5.59956006,9.89907871 5.61932004,9.76865243 5.57790294,9.67202496 C5.49423104,9.47647114 5.14059653,9.36524317 4.92929789,9.29867269 C4.85360882,9.27487656 4.79198826,9.25526248 4.74300718,9.23606416 C4.1126838,8.98876047 4.02817419,8.68843518 4.06833473,8.48016399 C4.14212665,8.09531719 4.68835928,7.90959486 4.9870995,8.0485809 C5.19379077,8.14457249 5.37564657,8.19341204 5.52744356,8.19341204 C5.59830351,8.19341204 5.6504383,8.18255337 5.68660742,8.17025177 C5.68197541,8.09074383 5.67672743,8.00913263 5.67145482,7.92544264 C5.61722577,7.0743824 5.54951954,6.01546673 5.83566955,5.37915863 C6.67918874,3.50112285 8.46776183,3.35524008 8.99588526,3.35524008 L9.24273707,3.35294118 C9.77191995,3.35294118 11.5638685,3.49901959 12.4082007,5.378107 C12.6937348,6.01297217 12.6266692,7.0723036 12.5726372,7.92358395 L12.5703212,7.96009744 C12.5658863,8.03168149 12.5612789,8.10179815 12.5572875,8.17003166 C12.5890217,8.18069468 12.6329766,8.19028161 12.6909999,8.19258052 C12.8213369,8.18695553 12.9937562,8.13853175 13.1875863,8.0485809 C13.2870514,8.00245602 13.3911238,7.99264898 13.4611214,7.99264898 C13.562459,7.99264898 13.6665315,8.01248317 13.7539977,8.04880101 C14.0077729,8.13789588 14.1791328,8.3369959 14.183543,8.55382684 C14.1883722,8.82722557 13.9585701,9.05657823 13.500666,9.23606416 C13.4531386,9.25484672 13.3934398,9.27362928 13.329725,9.29407488 C13.1032984,9.36524317 12.7496639,9.47627548 12.6661891,9.67222062 C12.6245503,9.76843232 12.6443102,9.89888306 12.7239907,10.059562 C12.7256908,10.0633283 12.7317764,10.0760456 12.7332547,10.0795918 C12.8106192,10.2607408 13.534938,11.8566469 15.1246055,12.1166679 C15.2961625,12.1450619 15.4181224,12.2961539 15.4088584,12.4681072 C15.4055076,12.5202973 15.3933116,12.5693325 15.3724921,12.615653 C15.2337289,12.9374755 14.7322888,13.1526435 13.7504252,13.3076974 C13.7273144,13.3675913 13.6999658,13.4919768 13.6886075,13.5439468 C13.6671721,13.6416014 13.6450961,13.7372017 13.6156533,13.8377911 C13.5645779,14.0107961 13.4308655,14.1099181 13.2492068,14.1099181 C13.1592029,14.1099181 13.0616596,14.0982279 12.9369894,14.0738204 C12.7525959,14.0379183 12.5459292,14.004951 12.2869061,14.004951 C12.1369816,14.004951 11.9807743,14.0183042 11.8224728,14.0441791 C11.5243239,14.0934344 11.2510105,14.2854421 10.9617068,14.4886997 C10.4381907,14.8557911 9.81249934,15.0421738 9.10165777,15.0421738" id="Fill-1" stroke="#343333" stroke-width="0.5" fill="#FFFFFF"></path>
                </g>
            </g>
        </g>
    </g>
</svg>