<?xml version="1.0" encoding="UTF-8" standalone="no"?>
<svg width="22px" height="18px" viewBox="0 0 22 18" version="1.1" xmlns="http://www.w3.org/2000/svg" xmlns:xlink="http://www.w3.org/1999/xlink">
    <!-- Generator: Sketch 43.2 (39069) - http://www.bohemiancoding.com/sketch -->
    <title>i2 twitter copy</title>
    <desc>Created with Sketch.</desc>
    <defs></defs>
    <g id="Page-1" stroke="none" stroke-width="1" fill="none" fill-rule="evenodd">
        <g id="lookout---result" transform="translate(-796.000000, -168.000000)" fill="#1DA1F2">
            <g id="2" transform="translate(796.000000, 164.000000)">
                <path d="M21.1850147,6.08616274 C20.7067097,6.29856878 20.2101921,6.46613881 19.7007104,6.58745362 C20.2621007,6.0532059 20.6841932,5.38497573 20.9223223,4.6391104 C20.9902916,4.42617873 20.7593532,4.24205143 20.5673594,4.35606003 C19.8585883,4.7770876 19.0951268,5.09293713 18.2981267,5.29493575 C18.2518866,5.30665725 18.2041768,5.31259684 18.1563095,5.31259684 C18.0111332,5.31259684 17.8699984,5.2586149 17.7589904,5.16063794 C16.9110265,4.41219704 15.8204197,4 14.688139,4 C14.1981821,4 13.7035014,4.07647879 13.2177959,4.22733387 C11.712917,4.69477435 10.551769,5.9379358 10.1874636,7.47171666 C10.0507901,8.04701589 10.0137874,8.62284075 10.0774005,9.1831596 C10.084696,9.24754896 10.0543066,9.2924901 10.0355691,9.31356776 C10.0026604,9.35051937 9.95600034,9.37170216 9.90755575,9.37170216 C9.90214969,9.37170216 9.89658618,9.37143935 9.89107515,9.37091372 C6.5969482,9.06442036 3.62644999,7.47508068 1.52674717,4.89572172 C1.41967571,4.76415717 1.21435044,4.78029393 1.12900818,4.92689142 C0.717832783,5.6333347 0.500540703,6.4413292 0.500540703,7.26351563 C0.500540703,8.52354973 1.00603346,9.71099467 1.88407192,10.5766505 C1.51483284,10.4889758 1.1574556,10.3508935 0.825481589,10.1662406 C0.664874399,10.0768839 0.467264572,10.1917335 0.465007674,10.3757031 C0.442018802,12.2475676 1.53635211,13.9131758 3.17570014,14.6631936 C3.14268644,14.663982 3.10967274,14.66435 3.07660655,14.66435 C2.81674832,14.66435 2.55363595,14.639225 2.29466998,14.5896583 C2.11380319,14.555072 1.96185619,14.7268996 2.01801622,14.9025117 C2.55011939,16.5661751 3.98046812,17.792464 5.69214188,18.0708888 C4.27155554,19.0259013 2.61724899,19.5296626 0.89544544,19.5296626 L0.358671018,19.5293473 C0.193287601,19.5293473 0.0534123852,19.6373111 0.0112661193,19.7977326 C-0.0302503145,19.9557362 0.0462218018,20.1224127 0.18725171,20.2045683 C2.12744955,21.3353506 4.34052215,21.932989 6.58818304,21.932989 C8.55562111,21.932989 10.3959906,21.5419747 12.0582225,20.7708793 C13.5820488,20.0639629 14.9286299,19.0534442 16.0605432,17.7673915 C17.1149871,16.5693815 17.9395423,15.1864031 18.5112199,13.6569324 C19.0561822,12.1989996 19.3442254,10.6433526 19.3442254,9.15813973 L19.3442254,9.08739028 C19.3441729,8.84891311 19.4518742,8.62452276 19.6397741,8.47177542 C20.3527966,7.89200836 20.9737061,7.2095337 21.4851822,6.44332658 C21.6202287,6.24101258 21.4072405,5.9874499 21.1850147,6.08616274" id="i2-twitter-copy"></path>
            </g>
        </g>
    </g>
</svg>