<?xml version="1.0" encoding="UTF-8" standalone="no"?>
<svg width="23px" height="20px" viewBox="0 0 23 20" version="1.1" xmlns="http://www.w3.org/2000/svg" xmlns:xlink="http://www.w3.org/1999/xlink">
    <!-- Generator: Sketch 43.2 (39069) - http://www.bohemiancoding.com/sketch -->
    <title>i3 wechat copy</title>
    <desc>Created with Sketch.</desc>
    <defs>
        <polygon id="path-1" points="16.3900444 0.00862343722 4.70093134e-06 0.00862343722 4.70093134e-06 15.4570568 16.3900444 15.4570568 16.3900444 0.00862343722"></polygon>
    </defs>
    <g id="Page-1" stroke="none" stroke-width="1" fill="none" fill-rule="evenodd">
        <g id="lookout---result" transform="translate(-329.000000, -812.000000)">
            <g id="3" transform="translate(329.000000, 809.000000)">
                <g id="i3-wechat-copy" transform="translate(0.000000, 3.000000)">
                    <g id="Group-3" transform="translate(0.000000, 0.051320)">
                        <mask id="mask-2" fill="white">
                            <use xlink:href="#path-1"></use>
                        </mask>
                        <g id="Clip-2"></g>
                        <path d="M12.2136771,4.73897297 C12.2207781,5.67334292 11.0165495,6.25579451 10.3389076,5.62121904 C9.63614729,5.10189648 9.83531969,3.8366603 10.6603338,3.57406979 C11.3981752,3.27427531 12.271227,3.91741947 12.2136771,4.73897297 M6.51782872,4.97440649 C6.35485021,5.78615938 5.30151781,6.17771818 4.68640709,5.63370249 C3.97392261,5.11437993 4.17312151,3.82442323 5.01138375,3.56550111 C5.83162853,3.23830326 6.76487986,4.09949719 6.51782872,4.97440649 M12.8039344,1.21587453 C10.4589887,-0.148490114 7.53610656,-0.354302815 5.01257608,0.587650289 C3.35499643,1.204623 1.85326779,2.35093788 0.925951617,3.91251917 C0.0853312115,5.32019264 -0.230159779,7.07636247 0.176292879,8.68716579 C0.582984003,10.4753929 1.78223131,11.9735988 3.2431822,12.9750125 C2.96844246,13.8004808 2.69746519,14.6257027 2.44212072,15.4570568 C3.36564793,14.9614966 4.27828517,14.4446105 5.19826188,13.9402352 C6.30773986,14.3073199 7.47357538,14.4832928 8.63824507,14.4446105 C8.33478338,13.5251878 8.26279304,12.5350256 8.40089156,11.5756887 C8.62165841,10.2448597 9.3184836,9.02660071 10.2815697,8.1233025 C11.903141,6.55435707 14.2023806,5.89139269 16.3900444,6.05121373 C15.9812071,3.97934396 14.571871,2.22684251 12.8039344,1.21587453" id="Fill-1" fill="#9DE60B" mask="url(#mask-2)"></path>
                    </g>
                    <g id="Group-6" transform="translate(8.386968, 6.132803)" fill="#2E3233">
                        <path d="M10.5531378,4.92666067 C10.3167382,5.49687519 9.49034627,5.62806094 9.08270128,5.1870611 C8.88490669,5.00353245 8.83684247,4.72479011 8.75772463,4.47832406 C8.86336523,4.03464137 9.14997529,3.57234301 9.63790396,3.55252279 C10.3131877,3.4568437 10.9055911,4.30333672 10.5531378,4.92666067 M6.04445442,4.83881111 C5.85023682,5.47193566 4.9565444,5.66282845 4.52709299,5.17947795 C4.05217399,4.73456334 4.23669396,3.80139793 4.85919713,3.60319575 C5.55151796,3.30216935 6.34786311,4.12495477 6.04445442,4.83881111 M13.7469972,4.32709908 C13.174731,2.98745496 12.0941604,1.92655317 10.8407018,1.2699674 C8.62768098,0.109937147 5.87389798,0.118752216 3.66824315,1.29712438 C2.13408309,2.11134111 0.854313641,3.56867462 0.48977807,5.34198183 C0.189919874,6.64685845 0.459704812,8.05209545 1.12905338,9.19104619 C2.1269556,10.8999651 3.92854243,11.9904877 5.80309997,12.3411741 C7.16079493,12.6262951 8.56422243,12.4591373 9.88235847,12.0624318 C10.6715761,12.3810609 11.3790793,12.8940049 12.1455897,13.273354 C11.9495968,12.5885162 11.7385011,11.9083871 11.512435,11.2335415 C12.3698805,10.6004443 13.1519972,9.81461652 13.6221734,8.82568621 C14.3216482,7.44859173 14.3635653,5.74331386 13.7469972,4.32709908" id="Fill-4"></path>
                    </g>
                </g>
            </g>
        </g>
    </g>
</svg>