<svg xmlns="http://www.w3.org/2000/svg" width="21" height="21" viewBox="0 0 21 21">
    <path fill="#189D0E" fill-rule="evenodd" d="M21 10.23c0 5.649-4.615 10.229-10.309 10.229a10.32 10.32 0 0 1-4.983-1.273L0 21l1.86-5.488A10.122 10.122 0 0 1 .383 10.23C.382 4.58 4.997 0 10.692 0 16.384 0 21 4.58 21 10.23zm-10.309-8.6c-4.78 0-8.667 3.857-8.667 8.6 0 1.88.612 3.624 1.65 5.043l-1.082 3.193 3.33-1.058a8.667 8.667 0 0 0 4.77 1.422c4.778 0 8.666-3.858 8.666-8.6 0-4.743-3.888-8.6-8.667-8.6zm5.206 10.956c-.064-.105-.232-.167-.484-.293-.253-.125-1.496-.732-1.727-.815-.232-.084-.401-.126-.569.125-.168.25-.653.816-.8.983-.148.168-.295.188-.548.063-.253-.125-1.067-.391-2.032-1.244-.751-.666-1.258-1.486-1.406-1.737-.147-.25-.015-.386.11-.511.114-.113.253-.293.38-.439.126-.147.168-.252.252-.42.085-.167.043-.312-.021-.438-.063-.125-.569-1.359-.78-1.862-.209-.5-.42-.418-.568-.418-.147 0-.315-.02-.484-.02a.93.93 0 0 0-.674.313c-.23.25-.884.858-.884 2.091 0 1.234.905 2.427 1.031 2.593.127.168 1.748 2.782 4.317 3.786 2.57 1.004 2.57.669 3.033.627.463-.041 1.495-.607 1.706-1.192.21-.586.21-1.088.148-1.192z"/>
</svg>
