<svg xmlns="http://www.w3.org/2000/svg" xmlns:xlink="http://www.w3.org/1999/xlink" width="18" height="17" viewBox="0 0 18 17">
    <defs>
        <path id="a" d="M.008.094v16.879H17.73V.093H.008z"/>
    </defs>
    <g fill="none" fill-rule="evenodd">
        <g>
            <mask id="b" fill="#fff">
                <use xlink:href="#a"/>
            </mask>
            <path fill="#343333" d="M12.837.094H4.893C2.195.094 0 2.184 0 4.752v7.563c0 2.568 2.195 4.658 4.893 4.658h7.944c2.699 0 4.893-2.09 4.893-4.658V4.752c0-2.569-2.194-4.658-4.893-4.658zm3.32 12.22c0 1.744-1.489 3.161-3.32 3.161H4.893c-1.83 0-3.32-1.417-3.32-3.16V4.752c0-1.743 1.49-3.16 3.32-3.16h7.944c1.831 0 3.32 1.417 3.32 3.16v7.563z" mask="url(#b)"/>
        </g>
        <path fill="#343333" d="M8.865 4.184c-2.52 0-4.569 1.951-4.569 4.35 0 2.398 2.05 4.349 4.57 4.349 2.518 0 4.568-1.951 4.568-4.35 0-2.398-2.05-4.349-4.569-4.349zm0 7.2c-1.651 0-2.996-1.278-2.996-2.85 0-1.573 1.344-2.853 2.996-2.853s2.996 1.28 2.996 2.852c0 1.573-1.344 2.852-2.996 2.852zM13.625 2.914c-.303 0-.6.117-.814.322a1.076 1.076 0 0 0-.34.777c0 .288.125.572.34.776a1.19 1.19 0 0 0 1.63 0 1.08 1.08 0 0 0 .338-.776c0-.29-.123-.574-.338-.777a1.188 1.188 0 0 0-.816-.322z"/>
    </g>
</svg>
