<svg xmlns="http://www.w3.org/2000/svg" width="19" height="17" viewBox="0 0 19 17">
    <path fill="#343333" fill-rule="evenodd" d="M17.388 2.436A4.414 4.414 0 0 0 18.466.602c.06-.2-.144-.374-.313-.267a7.3 7.3 0 0 1-2.003.884.512.512 0 0 1-.476-.126A3.949 3.949 0 0 0 12.964 0c-.433 0-.87.072-1.298.214-1.328.44-2.353 1.61-2.675 3.054a4.978 4.978 0 0 0-.097 1.612.163.163 0 0 1-.037.122.148.148 0 0 1-.113.055C5.822 4.767 3.201 3.272 1.348.843a.207.207 0 0 0-.352.03 4.603 4.603 0 0 0-.554 2.2c0 1.186.446 2.304 1.22 3.118a3.533 3.533 0 0 1-.933-.386c-.142-.084-.317.024-.319.197-.02 1.763.946 3.33 2.393 4.037a3.434 3.434 0 0 1-.778-.07c-.16-.032-.293.13-.244.295.47 1.566 1.732 2.72 3.243 2.983A7.22 7.22 0 0 1 .79 14.62H.317a.318.318 0 0 0-.307.253.356.356 0 0 0 .155.383 10.698 10.698 0 0 0 5.65 1.627c1.736 0 3.36-.368 4.828-1.094a10.752 10.752 0 0 0 3.532-2.828 12.595 12.595 0 0 0 2.163-3.87c.48-1.372.735-2.837.735-4.235V4.79c0-.224.095-.435.261-.58A8.471 8.471 0 0 0 18.963 2.3c.119-.19-.069-.429-.265-.336-.422.2-.86.358-1.31.472z"/>
</svg>
