<svg xmlns="http://www.w3.org/2000/svg" xmlns:xlink="http://www.w3.org/1999/xlink" width="53" height="46" viewBox="0 0 53 46">
    <defs>
        <path id="a" d="M.093 0v26.513h25.999V0H.093z"/>
    </defs>
    <g fill="none" fill-rule="evenodd" transform="translate(-1 1)">
        <g transform="translate(0 19.12)">
            <mask id="b" fill="#fff">
                <use xlink:href="#a"/>
            </mask>
            <path fill="#343333" stroke="#343333" d="M13.345 24.47C7.312 24.47 2.4 19.486 2.4 13.367c0-6.126 4.912-11.11 10.945-11.11 6.039 0 10.95 4.984 10.95 11.11 0 6.119-4.911 11.101-10.95 11.101zm0-20.66c-5.189 0-9.414 4.287-9.414 9.558 0 5.264 4.225 9.548 9.414 9.548 5.194 0 9.42-4.284 9.42-9.548 0-5.27-4.226-9.557-9.42-9.557z" mask="url(#b)"/>
        </g>
        <path fill="#343333" stroke="#343333" d="M23.535 13.306a.773.773 0 0 1-.77-.772c0-3.257-2.605-5.9-5.808-5.9-2.44 0-4.642 1.567-5.472 3.9a.752.752 0 0 1-.978.463.776.776 0 0 1-.455-.993c1.038-2.94 3.815-4.922 6.905-4.922 4.046 0 7.339 3.34 7.339 7.444 0 .43-.344.78-.761.78z"/>
        <path fill="#343333" stroke="#343333" d="M23.535 33.26a.773.773 0 0 1-.77-.771V12.534c0-.432.344-.781.77-.781.417 0 .76.349.76.781v19.955a.77.77 0 0 1-.76.771zM3.692 29.99a.67.67 0 0 1-.27-.054.778.778 0 0 1-.447-.999l6.972-18.615a.759.759 0 0 1 .986-.446.778.778 0 0 1 .447.998L4.41 29.49c-.12.31-.411.5-.717.5zM21.9 4.74a.765.765 0 0 1-.762-.779c0-1.258-1.016-2.288-2.262-2.288-.948 0-1.806.607-2.127 1.515a.764.764 0 0 1-.979.47.782.782 0 0 1-.455-1c.537-1.514 1.97-2.537 3.56-2.537 2.091 0 3.787 1.727 3.787 3.84 0 .432-.337.78-.763.78z"/>
        <path fill="#343333" stroke="#343333" d="M21.9 8.065a.766.766 0 0 1-.762-.78V3.962c0-.424.335-.773.761-.773s.763.349.763.773v3.325c0 .43-.337.78-.763.78zM14.956 6.588a.781.781 0 0 1-.717-1.053l1.03-2.741a.765.765 0 0 1 .987-.446c.395.151.59.597.44.999L15.672 6.09a.762.762 0 0 1-.717.498zM41.906 43.59c-6.039 0-10.952-4.983-10.952-11.101 0-6.126 4.913-11.11 10.952-11.11 6.04 0 10.944 4.984 10.944 11.11 0 6.118-4.904 11.1-10.944 11.1zm0-20.659c-5.196 0-9.421 4.287-9.421 9.558 0 5.263 4.225 9.548 9.421 9.548 5.197 0 9.422-4.285 9.422-9.548 0-5.271-4.225-9.558-9.422-9.558zM31.724 13.306a.773.773 0 0 1-.77-.772c0-4.112 3.293-7.445 7.339-7.445 3.09 0 5.869 1.976 6.912 4.923a.784.784 0 0 1-.462.992.76.76 0 0 1-.977-.47c-.83-2.333-3.025-3.9-5.473-3.9-3.203 0-5.808 2.65-5.808 5.9a.766.766 0 0 1-.76.772z"/>
        <path fill="#343333" stroke="#343333" d="M31.724 33.26a.773.773 0 0 1-.77-.771V12.534c0-.432.344-.781.77-.781.417 0 .76.349.76.781v19.955a.766.766 0 0 1-.76.771zM51.56 29.99a.753.753 0 0 1-.71-.5l-6.973-18.616a.775.775 0 0 1 .441-.998.757.757 0 0 1 .985.446l6.973 18.615a.775.775 0 0 1-.716 1.053zM33.35 4.74a.771.771 0 0 1-.76-.779c0-2.113 1.703-3.84 3.784-3.84a3.808 3.808 0 0 1 3.57 2.537.793.793 0 0 1-.465 1 .762.762 0 0 1-.976-.47 2.27 2.27 0 0 0-2.13-1.515c-1.245 0-2.252 1.03-2.252 2.288 0 .432-.344.78-.77.78z"/>
        <path fill="#343333" stroke="#343333" d="M33.35 8.065a.772.772 0 0 1-.76-.78V3.962c0-.424.344-.773.76-.773.427 0 .77.349.77.773v3.325c0 .43-.343.78-.77.78zM40.294 6.588a.754.754 0 0 1-.71-.498l-1.03-2.743a.781.781 0 0 1 .448-.999.763.763 0 0 1 .986.454l1.022 2.741a.786.786 0 0 1-.44 1 .863.863 0 0 1-.276.045zM31.724 24.242h-8.189a.773.773 0 0 1-.77-.774c0-.43.344-.78.77-.78h7.419v-6.467h-7.419a.773.773 0 0 1-.77-.771c0-.433.344-.782.77-.782h8.19c.416 0 .76.35.76.782v8.018a.766.766 0 0 1-.76.774z"/>
        <ellipse cx="13.2" cy="32.744" fill="#DC534D" rx="6" ry="6.026"/>
        <ellipse cx="42" cy="32.744" fill="#DC534D" rx="6" ry="6.026"/>
    </g>
</svg>
