<svg xmlns="http://www.w3.org/2000/svg" xmlns:xlink="http://www.w3.org/1999/xlink" width="45" height="44" viewBox="0 0 45 44">
    <defs>
        <rect id="a" width="44.085" height="43.102" x=".485" rx="1.8"/>
    </defs>
    <g fill="none" fill-rule="evenodd">
        <path d="M.9 0h43.032v42.867H.9z"/>
        <g>
            <use fill="#FFF" xlink:href="#a"/>
            <rect width="43.185" height="42.202" x=".935" y=".45" stroke="#EBEBEB" stroke-width=".9" rx="1.8"/>
        </g>
        <path fill="#55ACEE" d="M30.754 16.412a4.396 4.396 0 0 0 1.852-2.448 8.19 8.19 0 0 1-2.676 1.074 4.108 4.108 0 0 0-3.076-1.398c-2.326 0-4.212 1.982-4.212 4.426 0 .347.035.685.108 1.008-3.501-.185-6.605-1.945-8.685-4.625a4.589 4.589 0 0 0-.57 2.227c0 1.535.744 2.89 1.875 3.685a4.074 4.074 0 0 1-1.91-.553v.054c0 2.146 1.452 3.935 3.382 4.34a3.936 3.936 0 0 1-1.112.156c-.271 0-.536-.026-.792-.078.535 1.758 2.092 3.04 3.936 3.074a8.199 8.199 0 0 1-6.238 1.834 11.52 11.52 0 0 0 6.459 1.988c7.75 0 11.987-6.745 11.987-12.596 0-.192-.002-.383-.01-.572a8.787 8.787 0 0 0 2.102-2.293 8.1 8.1 0 0 1-2.42.697z"/>
    </g>
</svg>
