<svg xmlns="http://www.w3.org/2000/svg" xmlns:xlink="http://www.w3.org/1999/xlink" width="45" height="44" viewBox="0 0 45 44">
    <defs>
        <rect id="a" width="44.085" height="43.102" x=".071" rx="1.8"/>
    </defs>
    <g fill="none" fill-rule="evenodd">
        <path d="M.9 0h43.032v42.867H.9z"/>
        <g>
            <use fill="#FFF" xlink:href="#a"/>
            <rect width="43.185" height="42.202" x=".521" y=".45" stroke="#EBEBEB" stroke-width=".9" rx="1.8"/>
        </g>
        <path fill="#DC4E41" d="M18.712 32.991c-2.656 0-4.572-1.686-4.572-3.711 0-1.986 2.378-3.64 5.033-3.61a5.806 5.806 0 0 1 1.72.276c1.44 1.007 2.474 1.575 2.765 2.721.055.233.085.47.085.715 0 2.027-1.3 3.609-5.031 3.609m.697-11.879c-1.781-.054-3.475-2-3.782-4.347-.307-2.348.888-4.145 2.669-4.092 1.78.054 3.474 1.936 3.782 4.285.307 2.348-.888 4.209-2.669 4.154m3.693 3.477c-.625-.444-1.819-1.523-1.819-2.158 0-.745.212-1.11 1.326-1.985 1.144-.897 1.954-2.158 1.954-3.623 0-1.747-.775-3.448-2.23-4.01h2.193l1.547-1.122h-6.915c-3.098 0-6.016 2.357-6.016 5.087 0 2.79 2.114 5.042 5.267 5.042.22 0 .432-.004.64-.02-.203.393-.351.837-.351 1.295 0 .776.416 1.406.942 1.919-.398 0-.782.011-1.198.011-3.84 0-6.796 2.454-6.796 5 0 2.506 3.24 4.074 7.08 4.074 4.376 0 6.795-2.493 6.795-5 0-2.009-.592-3.213-2.42-4.51m10.06-3.272h-2.69v-2.701h-2.167v2.7h-2.691v2.176h2.69v2.7h2.168v-2.7h2.69v-2.175"/>
    </g>
</svg>
