<svg xmlns="http://www.w3.org/2000/svg" xmlns:xlink="http://www.w3.org/1999/xlink" width="45" height="44" viewBox="0 0 45 44">
    <defs>
        <rect id="a" width="44.085" height="43.102" x=".523" rx="1.8"/>
    </defs>
    <g fill="none" fill-rule="evenodd">
        <path d="M.9 0h43.032v42.867H.9z"/>
        <ellipse cx="22.416" cy="21.434" stroke="#D8D8D8" stroke-width=".9" rx="21.066" ry="20.984"/>
        <use fill="#FFF" xlink:href="#a"/>
        <rect width="43.185" height="42.202" x=".973" y=".45" stroke="#EBEBEB" stroke-width=".9" rx="1.8"/>
        <path fill="#E23E3E" d="M10.68 21.434c0 4.787 2.89 8.9 7.027 10.708-.035-.817-.007-1.797.203-2.685.226-.949 1.51-6.37 1.51-6.37s-.376-.747-.376-1.85c0-1.734 1.009-3.027 2.263-3.027 1.069 0 1.585.799 1.585 1.755 0 1.07-.685 2.669-1.037 4.15-.294 1.24.624 2.25 1.852 2.25 2.224 0 3.72-2.843 3.72-6.215 0-2.562-1.731-4.48-4.882-4.48-3.56 0-5.778 2.646-5.778 5.599 0 1.018.302 1.737.773 2.293.218.256.248.359.17.653-.056.213-.185.733-.24.937-.078.296-.318.402-.587.293-1.64-.668-2.403-2.456-2.403-4.466 0-3.322 2.81-7.305 8.387-7.305 4.48 0 7.43 3.231 7.43 6.698 0 4.587-2.56 8.013-6.333 8.013-1.267 0-2.458-.682-2.866-1.458 0 0-.682 2.693-.827 3.215-.247.9-.736 1.8-1.18 2.503 1.054.31 2.17.48 3.326.48 6.48 0 11.735-5.235 11.735-11.691 0-6.458-5.254-11.691-11.735-11.691-6.482 0-11.737 5.233-11.737 11.69z"/>
    </g>
</svg>
