<svg xmlns="http://www.w3.org/2000/svg" xmlns:xlink="http://www.w3.org/1999/xlink" width="45" height="44" viewBox="0 0 45 44">
    <defs>
        <rect id="a" width="44.085" height="43.102" x=".022" y=".262" rx="1.8"/>
    </defs>
    <g fill="none" fill-rule="evenodd">
        <path d="M.9.898h43.032v42.867H.9z"/>
        <g>
            <use fill="#FFF" xlink:href="#a"/>
            <rect width="43.185" height="42.202" x=".472" y=".712" stroke="#EBEBEB" stroke-width=".9" rx="1.8"/>
        </g>
        <path fill="#DFA22F" d="M25.66 12.485a1.995 1.995 0 0 0-3.793 1.23l5.157 15.841a1.995 1.995 0 0 0 2.426 1.235c1.059-.304 1.704-1.427 1.366-2.465l-5.155-15.841"/>
        <path fill="#3CB187" d="M17.67 15.077a1.995 1.995 0 0 0-3.793 1.23l5.157 15.842a1.995 1.995 0 0 0 2.426 1.234c1.058-.304 1.703-1.426 1.366-2.465L17.67 15.077"/>
        <path fill="#CE1E5B" d="M32.152 25.604a1.99 1.99 0 1 0-1.233-3.787l-15.866 5.149a1.99 1.99 0 0 0-1.236 2.422c.304 1.057 1.429 1.7 2.468 1.364l15.867-5.148"/>
        <path fill="#392538" d="M18.36 30.079l3.792-1.23-1.232-3.787-3.793 1.23 1.233 3.787"/>
        <path fill="#BB242A" d="M26.35 27.486l3.792-1.23-1.232-3.787-3.792 1.23 1.232 3.787"/>
        <path fill="#72C5CD" d="M29.555 17.626a1.99 1.99 0 1 0-1.232-3.787l-15.866 5.149a1.99 1.99 0 0 0-1.237 2.422c.305 1.057 1.43 1.7 2.469 1.364l15.866-5.148"/>
        <path fill="#248C73" d="M15.763 22.1l3.793-1.23c-.466-1.431-.9-2.762-1.232-3.786l-3.794 1.23 1.233 3.787"/>
        <path fill="#62803A" d="M23.753 19.509l3.793-1.23-1.232-3.788-3.793 1.23 1.232 3.788"/>
    </g>
</svg>
