<svg xmlns="http://www.w3.org/2000/svg" xmlns:xlink="http://www.w3.org/1999/xlink" width="44" height="44" viewBox="0 0 44 44">
    <defs>
        <path id="a" d="M22.5 46H0V0h45v46z"/>
    </defs>
    <g fill="none" fill-rule="evenodd" transform="translate(-1 -1)">
        <mask id="b" fill="#fff">
            <use xlink:href="#a"/>
        </mask>
        <path fill="#343333" stroke="#343333" d="M42.075 4.847h-3.821c-.39 0-.708.298-.708.664 0 .367.317.664.708.664h1.317c-.267.414-.42.899-.42 1.417v31.392c0 .367.316.664.707.664.39 0 .708-.297.708-.664V7.592c0-.781.676-1.417 1.51-1.417.831 0 1.509.636 1.509 1.417v31.392c0 1.929-1.672 3.497-3.727 3.497-2.055 0-3.727-1.568-3.727-3.497V2.854c0-.366-.317-.664-.708-.664H2.903c-.39 0-.708.298-.708.665v36.13c0 2.66 2.307 4.825 5.143 4.825h32.52c2.835 0 5.142-2.165 5.142-4.826V7.592c0-1.514-1.312-2.745-2.925-2.745zM7.262 42.481c-2.054 0-3.724-1.568-3.724-3.497V3.52h31.08v35.465c0 1.375.616 2.617 1.602 3.497H7.262z" mask="url(#b)"/>
        <path stroke="#343333" stroke-linecap="round" stroke-linejoin="round" stroke-width="2" d="M8.085 25.987h21.55M21.944 19.416h7.69M21.944 13.94h7.69M8.085 31.463h21.55"/>
        <rect width="12.073" height="10.952" x="6.585" y="9.857" fill="#DC534D" rx="1"/>
    </g>
</svg>
