<svg xmlns="http://www.w3.org/2000/svg" width="135" height="28" viewBox="0 0 135 28">
    <g fill="#D8D8D8" fill-rule="evenodd">
        <path d="M61.876.797C66.484-.313 72.089.72 75.098 4.645c1.28 1.54 1.825 3.501 2.3 5.406-2.024.032-4.056.032-6.08.032-.88-4.348-6.865-6.087-10.04-3.11-2.237 2.43-2.642 6.04-2.18 9.19.495 2.418 1.473 5.227 3.973 6.228 3.561 1.327 7.77-1.04 8.247-4.868 2.064 0 4.133-.007 6.202.038-.43 3.682-2.21 7.516-5.823 9.024-5.605 2.43-13.633 1.706-16.88-4.085.516-2.36 1.093-4.817.56-7.229-.302-1.782-1.234-3.354-1.813-5.046-.011-4.605 3.948-8.518 8.312-9.428zM.152 1.47c2.217-.02 4.434-.02 6.652-.026 1.317 5.803 2.05 11.742 3.657 17.483 1.613-4.759 2.359-9.755 3.73-14.584.403-1.462 1.555-3.007 3.238-2.898 1.826-.218 3.067 1.469 3.44 3.058C22.18 9.25 23.04 14.117 24.5 18.832c1.678-5.69 2.598-11.557 3.826-17.356 2.164-.025 4.325-.025 6.492-.006-1.814 7.28-3.864 14.495-5.722 21.76-.456 1.81-1.253 3.875-3.194 4.542-2.198.5-4.191-1.244-4.724-3.277-1.369-4.361-2.36-8.838-3.71-13.212-1.085 4.349-2.197 8.684-3.393 13-.45 1.931-2.147 3.912-4.325 3.529-2.103-.238-3.138-2.322-3.6-4.144C4.161 16.266 2.137 8.871.152 1.47zM78.864 1.464c1.987-.006 3.979-.006 5.965-.013-.013 2.18-.032 4.36.141 6.529 3.196.224 6.699-.68 9.642.936 2.54 1.36 4.005 4.233 3.986 7.067.04 3.945-.013 7.889.006 11.84-1.935.013-3.863.019-5.791.025-.04-3.79.045-7.58-.019-11.37.077-1.283-.836-2.624-2.16-2.772-1.928-.243-3.876-.115-5.81-.077.012 4.733.006 9.473.006 14.213-1.986-.006-3.973-.006-5.958-.006-.008-8.792.005-17.58-.008-26.372zm45.702-.007h5.65c-.007 1.982-.007 3.957-.015 5.939 1.511 0 3.021 0 4.539.007-.007 1.462-.007 2.93-.007 4.393h-4.584c.117 3.348-.25 6.734.194 10.069 1.016 1.25 2.809 1.072 4.242 1.475-.019 1.494-.025 2.99-.025 4.49-3.246.07-7.681.494-9.346-3.027-1.434-4.15-.36-8.69-.681-12.994-1.452-.013-2.906-.02-4.358-.038 0-1.45-.007-2.9-.007-4.342 1.466-.019 2.932-.032 4.404-.039-.006-1.975-.006-3.95-.006-5.933zM53.399 18.998c.103-3.79-.74-8.068-4.102-10.338C44.9 5.87 37.863 6.248 34.9 10.962c-2.476 4.156-2.61 10.043.745 13.782 3.213 3.624 8.909 3.817 13.118 2.002 2.322-.943 3.6-3.194 4.475-5.4a99.931 99.931 0 0 0-5.554-.026c-1.64 1.943-4.532 2.726-6.826 1.507-1.46-.705-1.754-2.411-2.212-3.784 4.917-.077 9.834-.007 14.753-.045zm-14.901-3.957c.663-2.02 2.333-3.784 4.654-3.419 2.288-.371 3.843 1.47 4.486 3.425-3.046.09-6.093.084-9.14-.006zM119.198 14.002c-.115-3.508-3.22-6.279-6.607-6.638-3.356-.346-7.154-.346-9.925 1.874-1.471 1.064-1.94 2.892-2.32 4.566 1.728.045 3.458.051 5.193.039.984-2.938 4.834-3.31 7.147-1.796.875.73.798 1.962 1.048 2.981-3.624.142-7.61-.557-10.83 1.527-3.065 1.796-3.624 6.202-1.844 9.076 1.246 1.866 3.683 2.212 5.758 2.206 4.14.02 8.28-.007 12.419 0-.039-4.618.077-9.23-.039-13.835zm-13.304 8.446c-.27-1.013.307-1.937.642-2.84 2.3-.52 4.666-.59 7.026-.54.012 1.61.012 3.215.006 4.824-2.559-.16-5.696.648-7.674-1.444z"/>
    </g>
</svg>
