<?xml version="1.0" encoding="UTF-8" standalone="no"?>
<svg width="20px" height="15px" viewBox="0 0 20 15" version="1.1" xmlns="http://www.w3.org/2000/svg" xmlns:xlink="http://www.w3.org/1999/xlink">
    <!-- Generator: Sketch 43.2 (39069) - http://www.bohemiancoding.com/sketch -->
    <title>Add Contact</title>
    <desc>Created with Sketch.</desc>
    <defs></defs>
    <g id="Page-1" stroke="none" stroke-width="1" fill="none" fill-rule="evenodd">
        <g id="lookout---result" transform="translate(-816.000000, -237.000000)" fill="#1DA1F2">
            <g id="2" transform="translate(796.000000, 164.000000)">
                <g id="Twitter" transform="translate(9.436747, 50.449111)">
                    <g transform="translate(-1.487952, -1.949919)" id="Top-Navigation-Bar">
                        <g transform="translate(1.398818, 1.730572)">
                            <g id="Add-Contact" transform="translate(20.276299, 30.612404) scale(-1, 1) translate(-20.276299, -30.612404) translate(10.276299, 23.612404)">
                                <path d="M4.15930625,4.89045171 L4.15930625,3.18778909 C4.15930625,2.7646593 3.82194552,2.42164482 3.39925337,2.42164482 C2.97948776,2.42164482 2.63920049,2.76883987 2.63920049,3.18778909 L2.63920049,4.89045171 L0.936537876,4.89045171 C0.513408082,4.89045171 0.17039361,5.22781244 0.17039361,5.65050459 C0.17039361,6.0702702 0.517588659,6.41055747 0.936537876,6.41055747 L2.63920049,6.41055747 L2.63920049,8.11322009 C2.63920049,8.53634988 2.97656123,8.87936435 3.39925337,8.87936435 C3.81901899,8.87936435 4.15930625,8.5321693 4.15930625,8.11322009 L4.15930625,6.41055747 L5.86196887,6.41055747 C6.28509867,6.41055747 6.62811314,6.07319673 6.62811314,5.65050459 C6.62811314,5.23073897 6.28091809,4.89045171 5.86196887,4.89045171 L4.15930625,4.89045171 Z" id="Plus-Sign"></path>
                                <path d="M10.0504985,10.0892727 C7.04056903,10.5057821 5.86853584,11.5896761 5.86853584,11.5896761 L5.86853584,13.5096702 L19.169264,13.5096702 L19.1692641,11.5896761 C19.1692641,11.5896761 18.0459263,10.5508154 15.1744511,10.1163719 C14.5140658,10.7958712 13.6718395,11.3253875 12.6506632,11.3253875 C11.6159508,11.3253875 10.7428808,10.7817404 10.0504985,10.0892727 Z" id="Body"></path>
                                <path d="M12.64083,0.0896498802 C15.8140066,0.0896498802 15.8140067,3.90385788 15.8140067,3.90385788 L15.8140067,3.90385788 C16.0301329,3.90385788 16.1915129,4.25868791 16.1440376,4.68915468 C16.1440376,4.68915468 16.2053378,5.31000398 15.8140067,5.31000398 C15.3674361,5.8844792 14.0289495,9.47683621 12.64083,9.47683619 C11.2527105,9.47683617 9.69967626,5.86365891 9.33178134,5.31000398 C8.93767424,5.31000398 8.99940926,4.68915468 8.99940926,4.68915468 C8.96531395,4.25544723 9.29541111,3.90385788 9.33178134,3.90385788 L9.33178134,3.90385788 C9.33178134,3.90385788 9.46765339,0.0896498802 12.64083,0.0896498802 Z" id="Head" stroke="#FFFFFF" stroke-width="0.78375"></path>
                            </g>
                        </g>
                    </g>
                </g>
            </g>
        </g>
    </g>
</svg>