<?xml version="1.0" encoding="UTF-8" standalone="no"?>
<svg width="10px" height="9px" viewBox="0 0 10 9" version="1.1" xmlns="http://www.w3.org/2000/svg" xmlns:xlink="http://www.w3.org/1999/xlink">
    <!-- Generator: Sketch 43.2 (39069) - http://www.bohemiancoding.com/sketch -->
    <title>Messages</title>
    <desc>Created with Sketch.</desc>
    <defs></defs>
    <g id="Page-1" stroke="none" stroke-width="1" fill="none" fill-rule="evenodd">
        <g id="lookout---result" transform="translate(-1045.000000, -517.000000)" fill="#B0C0C9">
            <g id="2" transform="translate(796.000000, 164.000000)">
                <g id="Twitter" transform="translate(9.436747, 50.449111)">
                    <g transform="translate(-1.487952, -1.949919)" id="Tweet1">
                        <g transform="translate(1.758781, 48.240962)">
                            <g id="Controls" transform="translate(53.221081, 256.418448)">
                                <g id="Show-the-love" transform="translate(126.337251, 0.000000)">
                                    <path d="M68.5190891,0.457285956 L64.8190848,3.56195818 L61.0319972,0.384214358 C61.2559658,0.295372563 61.5002841,0.246594659 61.7560587,0.246594659 L67.6310741,0.246594659 C67.9516745,0.246594659 68.2531996,0.322537633 68.5190891,0.457285956 Z M69.2735235,1.1350615 C69.4732042,1.44218622 69.5887843,1.8091063 69.5887843,2.20324485 L69.5887843,4.75293814 C69.5887843,5.83796024 68.7122876,6.70958833 67.6310741,6.70958833 L63.4923141,6.70958833 L61.3329943,8.48139924 C60.4963024,9.16793946 59.8180295,8.84423578 59.8180295,7.76618788 L59.8180295,5.03258005 C59.8050555,4.94124915 59.7983484,4.84788338 59.7983484,4.75293814 L59.7983484,2.20324485 C59.7983484,1.75016684 59.9511821,1.33429809 60.2079358,1.00356596 L64.3675279,4.49387814 C64.496353,4.6019752 64.6667255,4.63011588 64.8190848,4.5878914 C64.9714441,4.63011588 65.1418166,4.6019752 65.2706417,4.49387814 L69.2735235,1.1350615 Z" id="Messages"></path>
                                </g>
                            </g>
                        </g>
                    </g>
                </g>
            </g>
        </g>
    </g>
</svg>