<?xml version="1.0" encoding="UTF-8" standalone="no"?>
<svg width="18px" height="16px" viewBox="0 0 18 16" version="1.1" xmlns="http://www.w3.org/2000/svg" xmlns:xlink="http://www.w3.org/1999/xlink">
    <!-- Generator: Sketch 43.2 (39069) - http://www.bohemiancoding.com/sketch -->
    <title>Tweeter logo</title>
    <desc>Created with Sketch.</desc>
    <defs></defs>
    <g id="Page-1" stroke="none" stroke-width="1" fill="none" fill-rule="evenodd">
        <g id="lookout---result" transform="translate(-943.000000, -237.000000)" fill="#1DA1F2">
            <g id="2" transform="translate(796.000000, 164.000000)">
                <g id="Twitter" transform="translate(9.436747, 50.449111)">
                    <g transform="translate(-1.487952, -1.949919)" id="Top-Navigation-Bar">
                        <g transform="translate(1.398818, 1.730572)">
                            <path d="M139.532214,32.034315 C139.737499,32.0738742 139.948981,32.0945327 140.165005,32.0945327 C140.545339,32.0945327 140.911595,32.0304962 141.254738,31.9120188 C139.572614,31.6297008 138.286422,30.0825198 138.286422,28.2162136 C138.286422,28.1872686 138.286731,28.1584004 138.287347,28.1296125 C138.785415,28.4300617 139.35919,28.6052685 139.970724,28.6149207 C138.96043,27.9571276 138.286422,26.773338 138.286422,25.4223161 C138.286422,24.7208671 138.468113,24.0644986 138.784226,23.5034227 C140.575419,25.7792031 143.203264,27.2862865 146.165393,27.4910031 C146.111128,27.2263545 146.08254,26.9515197 146.08254,26.6695918 C146.08254,24.5479296 147.7016,22.8279827 149.698812,22.8279827 C150.742233,22.8279827 151.68244,23.2974289 152.342486,24.0483472 C153.161466,23.9101416 153.922644,23.5875928 154.587155,23.1219844 C154.342027,24.011015 153.784171,24.7581162 153.048691,25.219766 C153.768624,25.148641 154.448809,24.9409184 155.073865,24.6291261 C154.626088,25.407611 154.024598,26.075445 153.314224,26.585006 C153.314796,26.6131279 153.315084,26.6413242 153.315084,26.6695918 C153.315084,26.7445496 153.313562,27.03512 153.313562,27.1069946 C153.313562,33.1000015 148.740244,37.9582929 143.098769,37.9582929 C141.04659,37.9582929 139.135755,37.3154144 137.534989,36.2088945 C137.819514,36.2439681 138.108931,36.261998 138.402312,36.261998 C140.101704,36.261998 141.66809,35.6570543 142.921059,34.6388228 C141.316838,34.6389751 139.985281,33.5448597 139.532214,32.034315 Z" id="Tweeter-logo"></path>
                        </g>
                    </g>
                </g>
            </g>
        </g>
    </g>
</svg>