<?xml version="1.0" encoding="UTF-8" standalone="no"?>
<svg width="17px" height="18px" viewBox="0 0 17 18" version="1.1" xmlns="http://www.w3.org/2000/svg" xmlns:xlink="http://www.w3.org/1999/xlink">
    <!-- Generator: Sketch 43.2 (39069) - http://www.bohemiancoding.com/sketch -->
    <title>Compose Tweet</title>
    <desc>Created with Sketch.</desc>
    <defs></defs>
    <g id="Page-1" stroke="none" stroke-width="1" fill="none" fill-rule="evenodd">
        <g id="lookout---result" transform="translate(-1073.000000, -235.000000)" fill="#1DA1F2">
            <g id="2" transform="translate(796.000000, 164.000000)">
                <g id="Twitter" transform="translate(9.436747, 50.449111)">
                    <g transform="translate(-1.487952, -1.949919)" id="Top-Navigation-Bar">
                        <g transform="translate(1.398818, 1.730572)">
                            <g id="Compose-Tweet" transform="translate(267.996750, 21.311008)">
                                <rect id="Rectangle-D" x="6.68770162" y="14.3563033" width="8.12806759" height="1.55203279" rx="0.776016393"></rect>
                                <rect id="Rectangle-C" x="0.037464501" y="2.71605738" width="1.47783047" height="8.53618033" rx="0.738915235"></rect>
                                <rect id="Rectangle-B" x="13.3379387" y="10.4762213" width="1.47783047" height="5.43211475" rx="0.738915235"></rect>
                                <rect id="Rectangle-A" x="0" y="2.71605738" width="5.91132188" height="1.55203279" rx="0.776016393"></rect>
                                <path d="M1.704516,17.4171795 C1.704516,17.0797401 1.57981797,13.2050278 6.72079153,7.01423002 C11.8617651,0.823432237 15.7314813,0.24104373 15.7314813,0.24104373 C15.4907428,2.07942975 12.3027092,4.06546126 12.3027092,4.06546126 C12.3027093,4.60235128 14.5089172,3.81846423 14.5089172,3.81846423 C14.0529666,5.75442301 10.0528413,7.37753892 10.0528413,7.37753892 C9.22997702,8.0129577 12.3027093,7.37753892 12.3027093,7.37753892 C11.9026543,9.01460465 7.30205888,10.162737 7.30205888,10.162737 C4.58429208,12.153265 1.704516,17.7546189 1.704516,17.4171795 Z" id="Feather"></path>
                            </g>
                        </g>
                    </g>
                </g>
            </g>
        </g>
    </g>
</svg>