<?xml version="1.0" encoding="UTF-8" standalone="no"?>
<svg width="12px" height="9px" viewBox="0 0 12 9" version="1.1" xmlns="http://www.w3.org/2000/svg" xmlns:xlink="http://www.w3.org/1999/xlink">
    <!-- Generator: Sketch 43.2 (39069) - http://www.bohemiancoding.com/sketch -->
    <title>Reply</title>
    <desc>Created with Sketch.</desc>
    <defs></defs>
    <g id="Page-1" stroke="none" stroke-width="1" fill="none" fill-rule="evenodd" opacity="0.9">
        <g id="lookout---result" transform="translate(-859.000000, -517.000000)" fill="#A8B9C3">
            <g id="2" transform="translate(796.000000, 164.000000)">
                <g id="Twitter" transform="translate(9.436747, 50.449111)">
                    <g transform="translate(-1.487952, -1.949919)" id="Tweet1">
                        <g transform="translate(1.758781, 48.240962)">
                            <g id="Controls" transform="translate(53.221081, 256.418448)">
                                <path d="M6.10372794,3.88574943 L6.10372794,1.22797343 C6.10372794,0.786192212 5.81774528,0.643616252 5.4649678,0.892815429 L0.55601503,4.36046014 C0.199150435,4.61254642 0.208434669,5.00705319 0.567623137,5.24806419 L5.45335969,8.52633281 C5.80534149,8.76250823 6.10372794,8.61065065 6.10372794,8.17634882 L6.10372794,5.82032711 L8.90625223,5.82032711 C9.92906842,6.39879083 10.0025916,7.88452083 10.0025916,7.88452083 C10.0025916,7.88452083 10.1259419,8.47031646 11.0006954,8.47031646 C11.8754489,8.47031646 11.9646518,7.88452083 11.9646518,7.88452083 C11.9646518,7.88452083 12.354319,6.9568224 11.3537129,5.4004691 C10.3531068,3.84411579 8.90625223,3.88574943 8.90625223,3.88574943 L6.10372794,3.88574943 Z" id="Reply"></path>
                            </g>
                        </g>
                    </g>
                </g>
            </g>
        </g>
    </g>
</svg>