<?xml version="1.0" encoding="UTF-8" standalone="no"?>
<svg width="16px" height="10px" viewBox="0 0 16 10" version="1.1" xmlns="http://www.w3.org/2000/svg" xmlns:xlink="http://www.w3.org/1999/xlink">
    <!-- Generator: Sketch 43.2 (39069) - http://www.bohemiancoding.com/sketch -->
    <title>Retweet</title>
    <desc>Created with Sketch.</desc>
    <defs></defs>
    <g id="Page-1" stroke="none" stroke-width="1" fill="none" fill-rule="evenodd">
        <g id="lookout---result" transform="translate(-920.000000, -517.000000)" fill="#B0C0C9">
            <g id="2" transform="translate(796.000000, 164.000000)">
                <g id="Twitter" transform="translate(9.436747, 50.449111)">
                    <g transform="translate(-1.487952, -1.949919)" id="Tweet1">
                        <g transform="translate(1.758781, 48.240962)">
                            <g id="Controls" transform="translate(53.221081, 256.418448)">
                                <g id="Retweet" transform="translate(61.016562, 0.393737)">
                                    <path d="M12.4569833,0.325040988 C12.9111709,0.487643989 13.2327189,0.922902075 13.2327189,1.43430781 L13.2327189,5.00757438 L14.3923854,5.00757438 C15.2643145,5.00757438 15.4851166,5.52211502 14.8992627,6.15683306 L12.5687971,8.68167501 C12.2736102,9.00148244 11.8034542,8.99799557 11.5114858,8.68167501 L9.18102011,6.15683306 C8.60089485,5.52832151 8.82210283,5.00757438 9.68789733,5.00757438 L10.8899618,5.00757438 L10.8899618,2.59103797 L8.17466334,2.59103797 C7.53691727,2.59103797 7.00815786,2.06659393 7.00815786,1.41965942 C7.00815786,0.768214605 7.53042015,0.248280872 8.17466334,0.248280872 L12.0434223,0.248280872 C12.1885711,0.248280872 12.3280745,0.275447196 12.4569833,0.325040988 Z M3.119589,8.85082688 C2.66540139,8.68822387 2.34385338,8.25296579 2.34385338,7.74156006 L2.34385338,4.16829348 L1.18418689,4.16829348 C0.312257868,4.16829348 0.0914557068,3.65375284 0.67730963,3.0190348 L3.00777523,0.494192852 C3.30296211,0.17438542 3.77311807,0.177872291 4.06508653,0.494192852 L6.39555221,3.0190348 C6.97567747,3.64754635 6.75446949,4.16829348 5.88867499,4.16829348 L4.68661048,4.16829348 L4.68661048,6.58482989 L7.40190898,6.58482989 C8.03965505,6.58482989 8.56841446,7.10927393 8.56841446,7.75620844 C8.56841446,8.40765326 8.04615217,8.92758699 7.40190898,8.92758699 L3.53315005,8.92758699 C3.38800119,8.92758699 3.24849786,8.90042067 3.119589,8.85082688 Z"></path>
                                </g>
                            </g>
                        </g>
                    </g>
                </g>
            </g>
        </g>
    </g>
</svg>