<?xml version="1.0" encoding="UTF-8" standalone="no"?>
<svg width="15px" height="16px" viewBox="0 0 15 16" version="1.1" xmlns="http://www.w3.org/2000/svg" xmlns:xlink="http://www.w3.org/1999/xlink">
    <!-- Generator: Sketch 43.2 (39069) - http://www.bohemiancoding.com/sketch -->
    <title>Search</title>
    <desc>Created with Sketch.</desc>
    <defs></defs>
    <g id="Page-1" stroke="none" stroke-width="1" fill="none" fill-rule="evenodd">
        <g id="lookout---result" transform="translate(-887.000000, -710.000000)" fill="#8899A6">
            <g id="2" transform="translate(796.000000, 164.000000)">
                <g id="Twitter" transform="translate(9.436747, 50.449111)">
                    <g transform="translate(-1.487952, -1.949919)" id="Tap-bar">
                        <g transform="translate(1.398818, 489.774448)">
                            <g id="explore" transform="translate(60.000000, 8.000000)">
                                <path d="M31.6136291,9.60778227 C31.9839532,9.80076979 32.262337,10.2867701 32.262337,10.2867701 C32.3759311,10.164486 33.2717299,10.1648316 33.8244398,10.7598238 L35.8297832,12.9185763 C36.3825759,13.5136576 36.3820674,14.4786999 35.8288323,15.0742576 C35.2767229,15.6686034 34.3790516,15.6702735 33.8263417,15.0752813 L31.8209983,12.9165288 C31.2682056,12.3214475 31.0877387,11.5512253 31.4177293,11.1959904 C31.4177293,11.1959904 30.9536307,10.912316 30.7632199,10.5259666 C29.854895,11.3069138 28.7033345,11.773787 27.450479,11.773787 C24.5165068,11.773787 22.1380524,9.21338059 22.1380524,6.05495923 C22.1380524,2.89653786 24.5165068,0.336131457 27.450479,0.336131457 C30.3844511,0.336131457 32.7629055,2.89653786 32.7629055,6.05495923 C32.7629055,7.39753109 32.3331417,8.63204742 31.6136291,9.60778227 Z M27.450479,10.2487663 C29.6020585,10.2487663 31.3462584,8.3711349 31.3462584,6.05495923 C31.3462584,3.73878356 29.6020585,1.8611522 27.450479,1.8611522 C25.2988994,1.8611522 23.5546995,3.73878356 23.5546995,6.05495923 C23.5546995,8.3711349 25.2988994,10.2487663 27.450479,10.2487663 Z" id="Search"></path>
                            </g>
                        </g>
                    </g>
                </g>
            </g>
        </g>
    </g>
</svg>