<?xml version="1.0" encoding="UTF-8" standalone="no"?>
<svg width="20px" height="18px" viewBox="0 0 20 18" version="1.1" xmlns="http://www.w3.org/2000/svg" xmlns:xlink="http://www.w3.org/1999/xlink">
    <!-- Generator: Sketch 43.2 (39069) - http://www.bohemiancoding.com/sketch -->
    <title>Home</title>
    <desc>Created with Sketch.</desc>
    <defs></defs>
    <g id="Page-1" stroke="none" stroke-width="1" fill="none" fill-rule="evenodd">
        <g id="lookout---result" transform="translate(-827.000000, -707.000000)" fill="#55ACEE">
            <g id="2" transform="translate(796.000000, 164.000000)">
                <g id="Twitter" transform="translate(9.436747, 50.449111)">
                    <g transform="translate(-1.487952, -1.949919)" id="Tap-bar">
                        <g transform="translate(1.398818, 489.774448)">
                            <g id="home" transform="translate(14.000000, 5.000000)">
                                <g id="Home" transform="translate(6.979690, 0.490952)">
                                    <path d="M2.71985547,10.1539498 L1.95248193,10.9213233 C1.67109761,11.2027076 1.22242895,11.2038878 0.946426472,10.9278854 C0.668499758,10.6499587 0.673361936,10.2014565 0.952988544,9.92182991 L7.19330501,3.68151345 C7.04088111,3.41034331 7.07732107,3.06384261 7.3071634,2.83400027 C7.54099542,2.60016825 7.8987611,2.56528815 8.17373749,2.73119726 C8.44871387,2.56528815 8.80647955,2.60016825 9.04031157,2.83400027 C9.27015391,3.06384261 9.30659386,3.41034331 9.15416997,3.68151345 L15.3944864,9.92182991 C15.674113,10.2014565 15.6789752,10.6499587 15.4010485,10.9278854 C15.125046,11.2038878 14.6763774,11.2027076 14.394993,10.9213233 L13.5720089,10.0983392 L11.8805894,17.1827767 L4.39353818,17.1827767 L2.71985547,10.1539498 Z M8.17373749,11.0779862 C9.1495536,11.0779862 9.94060886,10.2238588 9.94060886,9.17023923 C9.94060886,8.11661965 9.1495536,7.26249222 8.17373749,7.26249222 C7.19792137,7.26249222 6.40686612,8.11661965 6.40686612,9.17023923 C6.40686612,10.2238588 7.19792137,11.0779862 8.17373749,11.0779862 Z M8.17373749,14.1303815 C8.56406393,14.1303815 8.88048604,13.7887305 8.88048604,13.3672827 C8.88048604,12.9458348 8.56406393,12.6041839 8.17373749,12.6041839 C7.78341104,12.6041839 7.46698894,12.9458348 7.46698894,13.3672827 C7.46698894,13.7887305 7.78341104,14.1303815 8.17373749,14.1303815 Z" id="Timelines-(active)"></path>
                                    <ellipse id="Oval-22" cx="17.5679554" cy="2.30079893" rx="2.14273028" ry="2.30079893"></ellipse>
                                </g>
                            </g>
                        </g>
                    </g>
                </g>
            </g>
        </g>
    </g>
</svg>