<?xml version="1.0" encoding="UTF-8" standalone="no"?>
<svg width="15px" height="16px" viewBox="0 0 15 16" version="1.1" xmlns="http://www.w3.org/2000/svg" xmlns:xlink="http://www.w3.org/1999/xlink">
    <!-- Generator: Sketch 43.2 (39069) - http://www.bohemiancoding.com/sketch -->
    <title>Me</title>
    <desc>Created with Sketch.</desc>
    <defs></defs>
    <g id="Page-1" stroke="none" stroke-width="1" fill="none" fill-rule="evenodd">
        <g id="lookout---result" transform="translate(-1064.000000, -709.000000)" fill="#8899A6">
            <g id="2" transform="translate(796.000000, 164.000000)">
                <g id="Twitter" transform="translate(9.436747, 50.449111)">
                    <g transform="translate(-1.487952, -1.949919)" id="Tap-bar">
                        <g transform="translate(1.398818, 489.774448)">
                            <g id="me" transform="translate(258.000000, 7.000000)">
                                <g id="Me" transform="translate(0.851924, 0.059795)">
                                    <path d="M4.77435209,11.2685315 C1.48673398,11.7337234 0.206571919,12.9443057 0.206571919,12.9443057 L0.206571919,15.0887133 L14.7343923,15.0887133 L14.7343923,12.9443056 C14.7343923,12.9443056 13.5074182,11.7840204 10.3710279,11.2987981 C9.64971698,12.057719 8.72978904,12.6491264 7.61440152,12.6491264 C6.48422915,12.6491264 5.53061187,12.0419364 4.77435209,11.2685315 Z" id="Body"></path>
                                    <path d="M7.60366111,0.100128376 C11.0695871,0.100128376 11.0695872,4.36015029 11.0695872,4.36015029 L11.0695872,4.36015029 C11.3056527,4.36015029 11.4849314,4.70869512 11.4435923,5.14540023 C11.4435923,5.14540023 11.4970216,5.93065017 11.0695872,5.93065017 C10.5818171,6.57227145 9.11984508,10.5845119 7.60366111,10.5845119 C6.08747715,10.5845118 4.39116385,6.54901763 3.98932786,5.93065017 C3.55886141,5.93065017 3.61266972,5.14540023 3.61266972,5.14540023 C3.58295221,4.71171866 3.9063296,4.36015029 3.98932786,4.36015029 L3.98932786,4.36015029 C3.98932786,4.36015029 4.13773512,0.100128376 7.60366111,0.100128376 Z" id="Head"></path>
                                </g>
                            </g>
                        </g>
                    </g>
                </g>
            </g>
        </g>
    </g>
</svg>