<?xml version="1.0" encoding="UTF-8" standalone="no"?>
<svg width="15px" height="15px" viewBox="0 0 15 15" version="1.1" xmlns="http://www.w3.org/2000/svg" xmlns:xlink="http://www.w3.org/1999/xlink">
    <!-- Generator: Sketch 43.2 (39069) - http://www.bohemiancoding.com/sketch -->
    <title>Messages</title>
    <desc>Created with Sketch.</desc>
    <defs></defs>
    <g id="Page-1" stroke="none" stroke-width="1" fill="none" fill-rule="evenodd">
        <g id="lookout---result" transform="translate(-1005.000000, -710.000000)" fill="#8899A6">
            <g id="2" transform="translate(796.000000, 164.000000)">
                <g id="Twitter" transform="translate(9.436747, 50.449111)">
                    <g transform="translate(-1.487952, -1.949919)" id="Tap-bar">
                        <g transform="translate(1.398818, 489.774448)">
                            <g id="message" transform="translate(184.000000, 8.000000)">
                                <path d="M29.2477846,0.780473995 L23.3007143,5.77065849 L17.2863964,0.724046599 C17.3303353,0.720325898 17.3747897,0.71842727 17.4196847,0.71842727 L28.8092737,0.71842727 C28.9615512,0.71842727 29.1086826,0.740080291 29.2477846,0.780473995 Z M30.3107968,1.83340208 C30.3542812,1.97756088 30.3776481,2.13047883 30.3776481,2.28887372 L30.3776481,9.19883812 C30.3776481,10.0625278 29.675463,10.7692846 28.8092737,10.7692846 L21.4298507,10.7692846 L18.174154,13.3180454 C16.8289797,14.3711311 15.7385004,13.8373124 15.7385004,12.1340503 L15.7385004,5.54060051 L15.8513102,5.62891505 L15.8513102,2.28887372 C15.8513102,2.0417429 15.9087999,1.80746058 16.0111716,1.5989072 L22.8276025,7.31857188 C22.9653811,7.43418185 23.1332717,7.49044999 23.3007143,7.48971822 C23.4681569,7.49044999 23.6360474,7.43418185 23.773826,7.31857188 L30.3107968,1.83340208 Z" id="Messages"></path>
                            </g>
                        </g>
                    </g>
                </g>
            </g>
        </g>
    </g>
</svg>