<?xml version="1.0" encoding="UTF-8" standalone="no"?>
<svg width="13px" height="14px" viewBox="0 0 13 14" version="1.1" xmlns="http://www.w3.org/2000/svg" xmlns:xlink="http://www.w3.org/1999/xlink">
    <!-- Generator: Sketch 43.2 (39069) - http://www.bohemiancoding.com/sketch -->
    <title>notif icon</title>
    <desc>Created with Sketch.</desc>
    <defs></defs>
    <g id="Page-1" stroke="none" stroke-width="1" fill="none" fill-rule="evenodd">
        <g id="lookout---result" transform="translate(-946.000000, -710.000000)" fill="#8899A6">
            <g id="2" transform="translate(796.000000, 164.000000)">
                <g id="Twitter" transform="translate(9.436747, 50.449111)">
                    <g transform="translate(-1.487952, -1.949919)" id="Tap-bar">
                        <g transform="translate(1.398818, 489.774448)">
                            <g id="notif" transform="translate(119.000000, 8.000000)">
                                <g id="notif-icon" transform="translate(21.387003, 0.012147)">
                                    <path d="M8.09537719,1.05034 C8.08004412,1.05020086 8.06469371,1.05013114 8.04932628,1.05013114 C6.36582759,1.05013114 4.88660817,1.88690205 4.04127112,3.14943346 L3.9800402,3.12287362 C3.93884624,3.23605309 3.89633962,3.34743759 3.85268639,3.45699408 C3.71494357,3.70329642 3.60019751,3.96313864 3.51119306,4.23389469 C2.44563242,6.44746314 1.02137174,7.73165557 1.02137174,7.73165557 C0.429944934,8.36152231 0.609183918,9.11187198 1.42595077,9.4091508 L10.4101789,12.6791424 C11.2250485,12.9757307 11.8142564,12.5157982 11.7645391,11.6451153 C11.7645391,11.6451153 11.4570675,9.8615266 12.0400469,8.07766449 C12.5243849,7.36487589 12.8057463,6.51422335 12.8057463,5.6006994 C12.8057463,4.09615959 12.0425574,2.76215758 10.8663534,1.93371223 C10.9372462,1.76927577 10.976354,1.58909471 10.976354,1.40017485 C10.976354,0.626879634 10.3211165,0 9.51284014,0 C8.83082282,0 8.25776695,0.446329087 8.09537719,1.05034 Z" id="Oval"></path>
                                    <path d="M3.12526187,11.1414525 C3.12329442,11.1779069 3.12229854,11.2146072 3.12229854,11.2515299 C3.12229854,12.4114728 4.10515476,13.3517922 5.31756934,13.3517922 C5.9258745,13.3517922 6.47639216,13.1150825 6.87397914,12.7326886 L3.12526187,11.1414525 Z" id="Oval"></path>
                                </g>
                            </g>
                        </g>
                    </g>
                </g>
            </g>
        </g>
    </g>
</svg>