<?xml version="1.0" encoding="UTF-8" standalone="no"?>
<svg width="34px" height="34px" viewBox="0 0 34 34" version="1.1" xmlns="http://www.w3.org/2000/svg" xmlns:xlink="http://www.w3.org/1999/xlink">
    <!-- Generator: Sketch 43.2 (39069) - http://www.bohemiancoding.com/sketch -->
    <title>i1 fb</title>
    <desc>Created with Sketch.</desc>
    <defs></defs>
    <g id="Page-1" stroke="none" stroke-width="1" fill="none" fill-rule="evenodd">
        <path d="M29.4028509,0.0176234719 L4.57919315,0.0176234719 C2.05022494,0.0176234719 0,2.06776528 0,4.59681663 L0,29.4206406 C0,31.9496919 2.05014181,33.9998337 4.57919315,33.9998337 L16.8221027,33.9998337 L16.8429682,21.8564303 L13.6881174,21.8564303 C13.2781222,21.8564303 12.9453545,21.5249095 12.9437751,21.1149144 L12.9286455,17.2005917 C12.927066,16.7883521 13.2608313,16.4533399 13.6730709,16.4533399 L16.8221858,16.4533399 L16.8221858,12.67111 C16.8221858,8.28186797 19.5028655,5.89189242 23.4183521,5.89189242 L26.6313105,5.89189242 C27.0423863,5.89189242 27.3757359,6.22515892 27.3757359,6.63631785 L27.3757359,9.93689487 C27.3757359,10.3478875 27.0426357,10.6810709 26.6317262,10.6813203 L24.6599756,10.6822347 C22.5306112,10.6822347 22.1182885,11.694088 22.1182885,13.1790318 L22.1182885,16.453423 L26.7972372,16.453423 C27.2430611,16.453423 27.5889633,16.8427188 27.5364254,17.285467 L27.0724792,21.1997897 C27.028088,21.5743716 26.7104499,21.8565966 26.333291,21.8565966 L22.139154,21.8565966 L22.1182885,34 L29.4030171,34 C31.9319853,34 33.9821271,31.9498582 33.9821271,29.42089 L33.9821271,4.59681663 C33.982044,2.06776528 31.9319022,0.0176234719 29.4028509,0.0176234719" id="i1-fb" fill="#C4C4C4"></path>
    </g>
</svg>