<?xml version="1.0" encoding="UTF-8" standalone="no"?>
<svg width="23px" height="20px" viewBox="0 0 23 20" version="1.1" xmlns="http://www.w3.org/2000/svg" xmlns:xlink="http://www.w3.org/1999/xlink">
    <!-- Generator: Sketch 43.2 (39069) - http://www.bohemiancoding.com/sketch -->
    <title>Fill 1</title>
    <desc>Created with Sketch.</desc>
    <defs></defs>
    <g id="Symbols" stroke="none" stroke-width="1" fill="none" fill-rule="evenodd">
        <g id="footer" transform="translate(-194.000000, -201.000000)" fill="#6D758C">
            <path d="M216.150208,203.32662 C215.650112,203.563509 215.130973,203.750393 214.59828,203.885691 C215.185247,203.289865 215.62657,202.544612 215.875548,201.712776 C215.946614,201.475301 215.705154,201.269951 215.504413,201.397101 C214.763351,201.866657 213.965107,202.218912 213.131796,202.444194 C213.083449,202.457267 213.033566,202.463891 212.983518,202.463891 C212.831727,202.463891 212.684163,202.403687 212.568097,202.294417 C211.681501,201.459708 210.541207,201 209.357341,201 C208.845062,201 208.327844,201.085294 207.82001,201.253537 C206.24657,201.774856 205.032521,203.161308 204.651618,204.871877 C204.508718,205.513487 204.47003,206.155683 204.536541,206.780586 C204.544169,206.852397 204.512395,206.902519 204.492804,206.926026 C204.458396,206.967237 204.40961,206.990861 204.358958,206.990861 C204.353306,206.990861 204.347489,206.990568 204.341727,206.989982 C200.897522,206.648161 197.791691,204.875629 195.596327,201.998965 C195.484378,201.852236 195.269698,201.870233 195.180468,202.033728 C194.75056,202.821598 194.523368,203.722724 194.523368,204.639678 C194.523368,206.044948 195.05189,207.369261 195.969932,208.334695 C195.58387,208.236915 195.210211,208.082917 194.863113,207.87698 C194.695188,207.777324 194.488576,207.905412 194.486216,208.110586 C194.46218,210.198207 195.60637,212.055799 197.320405,212.892266 C197.285887,212.893145 197.25137,212.893555 197.216797,212.893555 C196.9451,212.893555 196.67,212.865534 196.399236,212.810255 C196.210129,212.771682 196.05126,212.963315 196.109978,213.159169 C196.666324,215.014591 198.161838,216.382225 199.951494,216.692742 C198.466187,217.757833 196.736512,218.319659 194.936264,218.319659 L194.375035,218.319307 C194.202117,218.319307 194.055869,218.439715 194.011802,218.618627 C193.968395,218.794843 194.048351,218.980731 194.195806,219.072356 C196.224397,220.333476 198.538295,221 200.888358,221 C202.945431,221 204.869646,220.563916 206.607607,219.703942 C208.200858,218.915544 209.608788,217.78855 210.79227,216.354263 C211.894754,215.018167 212.756875,213.475782 213.354598,211.77002 C213.924388,210.144041 214.225554,208.409086 214.225554,206.752683 L214.225554,206.673778 C214.225499,206.407814 214.338107,206.157559 214.534568,205.987206 C215.280075,205.340613 215.929272,204.579474 216.464051,203.724952 C216.60525,203.499319 216.382558,203.216529 216.150208,203.32662" id="Fill-1"></path>
        </g>
    </g>
</svg>