<?xml version="1.0" encoding="UTF-8" standalone="no"?>
<svg width="20px" height="20px" viewBox="0 0 20 20" version="1.1" xmlns="http://www.w3.org/2000/svg" xmlns:xlink="http://www.w3.org/1999/xlink">
    <!-- Generator: Sketch 43.2 (39069) - http://www.bohemiancoding.com/sketch -->
    <title>Fill 1</title>
    <desc>Created with Sketch.</desc>
    <defs></defs>
    <g id="Symbols" stroke="none" stroke-width="1" fill="none" fill-rule="evenodd">
        <g id="footer" transform="translate(-150.000000, -201.000000)" fill="#6D758C">
            <path d="M167.304764,201 L152.69504,201 C151.20664,201 150,202.206591 150,203.69504 L150,218.304862 C150,219.793311 151.206591,220.999902 152.69504,220.999902 L159.900486,220.999902 L159.912767,213.853019 L158.056009,213.853019 C157.814711,213.853019 157.618864,213.657906 157.617934,213.416607 L157.60903,211.11287 C157.6081,210.870251 157.804534,210.673082 158.047154,210.673082 L159.900535,210.673082 L159.900535,208.447087 C159.900535,205.863841 161.478223,204.457244 163.782645,204.457244 L165.673601,204.457244 C165.915536,204.457244 166.111725,204.653385 166.111725,204.895369 L166.111725,206.837892 C166.111725,207.079777 165.915682,207.275869 165.673846,207.276016 L164.513391,207.276554 C163.260174,207.276554 163.017505,207.872071 163.017505,208.74602 L163.017505,210.673131 L165.771256,210.673131 C166.033641,210.673131 166.237218,210.902248 166.206298,211.162823 L165.933247,213.46656 C165.907121,213.687016 165.720178,213.853117 165.498204,213.853117 L163.029786,213.853117 L163.017505,221 L167.304862,221 C168.793262,221 169.999853,219.793409 169.999853,218.305009 L169.999853,203.69504 C169.999804,202.206591 168.793213,201 167.304764,201" id="Fill-1"></path>
        </g>
    </g>
</svg>