<?xml version="1.0" encoding="UTF-8" standalone="no"?>
<svg width="21px" height="20px" viewBox="0 0 21 20" version="1.1" xmlns="http://www.w3.org/2000/svg" xmlns:xlink="http://www.w3.org/1999/xlink">
    <!-- Generator: Sketch 43.2 (39069) - http://www.bohemiancoding.com/sketch -->
    <title>instagram-logo</title>
    <desc>Created with Sketch.</desc>
    <defs>
        <polygon id="path-1" points="0.00917647059 0.110117647 0.00917647059 19.968 20.6852941 19.968 20.6852941 0.110117647 0.00917647059 0.110117647"></polygon>
    </defs>
    <g id="Symbols" stroke="none" stroke-width="1" fill="none" fill-rule="evenodd">
        <g id="footer" transform="translate(-241.000000, -201.000000)">
            <g id="instagram-logo" transform="translate(240.944704, 201.000000)">
                <g id="Group-3" transform="translate(-0.000000, 0.000000)">
                    <mask id="mask-2" fill="white">
                        <use xlink:href="#path-1"></use>
                    </mask>
                    <g id="Clip-2"></g>
                    <path d="M14.9769176,0.110117647 L5.70837647,0.110117647 C2.56054118,0.110117647 0,2.568384 0,5.59030588 L0,14.4879586 C0,17.5098805 2.56054118,19.968 5.70837647,19.968 L14.9769176,19.968 C18.1247529,19.968 20.6852941,17.5092932 20.6852941,14.4879586 L20.6852941,5.59030588 C20.6852941,2.568384 18.1247529,0.110117647 14.9769176,0.110117647 Z M18.85,14.4879586 C18.85,16.5383492 17.1127412,18.2061176 14.9769176,18.2061176 L5.70837647,18.2061176 C3.57255294,18.2061176 1.83529412,16.5383492 1.83529412,14.4879586 L1.83529412,5.59030588 C1.83529412,3.53991529 3.57255294,1.872 5.70837647,1.872 L14.9769176,1.872 C17.1127412,1.872 18.85,3.53991529 18.85,5.59030588 L18.85,14.4879586 Z" id="Fill-1" fill="#6D758C" mask="url(#mask-2)"></path>
                </g>
                <path d="M10.3426471,4.92269929 C7.40327059,4.92269929 5.01234118,7.21799153 5.01234118,10.0390588 C5.01234118,12.8608602 7.40327059,15.1561525 10.3426471,15.1561525 C13.2814118,15.1561525 15.6729529,12.8608602 15.6729529,10.0390588 C15.6729529,7.21799153 13.2814118,4.92269929 10.3426471,4.92269929 Z M10.3426471,13.3936828 C8.41589412,13.3936828 6.84763529,11.8893289 6.84763529,10.0390588 C6.84763529,8.18952282 8.41528235,6.68399435 10.3426471,6.68399435 C12.2700118,6.68399435 13.8376588,8.18952282 13.8376588,10.0390588 C13.8376588,11.8893289 12.2694,13.3936828 10.3426471,13.3936828 Z" id="Fill-4" fill="#6D758C"></path>
                <path d="M15.8964,3.42862306 C15.5426471,3.42862306 15.1954706,3.56575624 14.9458706,3.80654682 C14.6942824,4.04630965 14.5503647,4.38003953 14.5503647,4.72081694 C14.5503647,5.06027294 14.6948941,5.39356235 14.9458706,5.63435294 C15.1950118,5.87411576 15.5426471,6.01242353 15.8964,6.01242353 C16.2512235,6.01242353 16.5971765,5.87411576 16.848,5.63435294 C17.0989765,5.39356235 17.2422824,5.05968565 17.2422824,4.72081694 C17.2422824,4.38003953 17.0989765,4.04630965 16.848,3.80654682 C16.5982471,3.56575624 16.2512235,3.42862306 15.8964,3.42862306 Z" id="Fill-5" fill="#6D758C"></path>
            </g>
        </g>
    </g>
</svg>