<?xml version="1.0" encoding="UTF-8" standalone="no"?>
<svg width="54px" height="45px" viewBox="0 0 54 45" version="1.1" xmlns="http://www.w3.org/2000/svg" xmlns:xlink="http://www.w3.org/1999/xlink">
    <!-- Generator: Sketch 43.2 (39069) - http://www.bohemiancoding.com/sketch -->
    <title>icon2</title>
    <desc>Created with Sketch.</desc>
    <defs>
        <path d="M3.73902978,22.0378971 C3.77219713,22.0482054 3.80534641,22.0587413 3.83847591,22.0695058 L26.0604837,29.2898738 C26.8669197,29.5519007 27.6030321,29.9304409 28.256369,30.400756 L44.464463,24.5014923 C47.8206031,23.2799572 51.5327524,25.0137214 52.7502357,28.3587295 C53.9702015,31.7105579 52.2383076,35.418068 48.8823498,36.6395368 L27.2636302,44.5081072 C26.2520645,44.876287 25.2081568,44.9759883 24.2099634,44.8440139 C23.1969737,44.923121 22.1521746,44.8089022 21.1263454,44.47559 L3.73902978,38.8261087 L3.73902978,22.0378971 Z" id="path-1"></path>
        <rect id="path-2" x="13.9189346" y="18.8555881" width="11.3364201" height="24.5457945" rx="5.66821004"></rect>
        <rect id="path-3" x="0.863727244" y="20.4588235" width="12.5958136" height="23.287499" rx="1"></rect>
    </defs>
    <g id="Page-1" stroke="none" stroke-width="1" fill="none" fill-rule="evenodd">
        <g id="lookout---homepage-copy" transform="translate(-572.000000, -587.000000)">
            <g id="benefits-bigger" transform="translate(247.000000, 579.000000)">
                <g id="bene2" transform="translate(325.000000, 5.000000)">
                    <g id="icon2" transform="translate(0.000000, 3.000000)">
                        <g id="Combined-Shape">
                            <use fill="#FFFFFF" fill-rule="evenodd" xlink:href="#path-1"></use>
                            <path stroke="#343333" stroke-width="3" d="M5.23902978,24.1017666 L25.5969582,30.7164586 C26.2427492,30.9262888 26.8413796,31.2303864 27.3800193,31.6181349 L28.0238924,32.0816373 L28.7693993,31.810295 L44.9774932,25.9110312 C47.5529705,24.9736341 50.4057534,26.3030238 51.3406968,28.8717597 C52.2771508,31.4446459 50.9472854,34.291695 48.3693196,35.2299978 L26.7505999,43.0985683 C25.9891925,43.3756979 25.1905232,43.4606035 24.4065725,43.3569547 L24.2503169,43.3362957 L24.0931799,43.3485669 C23.2550746,43.4140168 22.4087499,43.3150752 21.5898709,43.0490053 L5.23902978,37.7362949 L5.23902978,24.1017666 Z"></path>
                        </g>
                        <g id="Rectangle-7-Copy-3" transform="translate(19.587145, 31.128485) rotate(107.000000) translate(-19.587145, -31.128485) ">
                            <use fill="#FFFFFF" fill-rule="evenodd" xlink:href="#path-2"></use>
                            <rect stroke="#343333" stroke-width="3" x="15.4189346" y="20.3555881" width="8.33642008" height="21.5457945" rx="4.16821004"></rect>
                        </g>
                        <g id="Rectangle-7-Copy-2">
                            <use fill="#FFFFFF" fill-rule="evenodd" xlink:href="#path-3"></use>
                            <rect stroke="#343333" stroke-width="3" x="2.36372724" y="21.9588235" width="9.59581362" height="20.287499" rx="1"></rect>
                        </g>
                        <path d="M35.9496562,5.90404501 C35.6454661,2.48224874 33.2667499,0 30.2897093,0 C28.3076972,0 26.4911041,1.08803188 25.4699304,2.82785887 C24.4583098,1.06396718 22.7161302,0 20.7657941,0 C17.7882507,0 15.4100373,2.48224874 15.1053444,5.90404501 C15.0802047,6.05611347 14.9816572,6.85024874 15.2823277,8.14820678 C15.7162385,10.0201336 16.7178033,11.7225835 18.1794241,13.068159 L25.4659081,19.8026923 L32.8760793,13.070207 C34.3371973,11.7225835 35.3387621,10.0201336 35.7731757,8.14820678 C36.0733434,6.8522968 35.9732875,6.05611347 35.9496562,5.90404501 Z" id="Fill-1" fill="#DB544D"></path>
                    </g>
                </g>
            </g>
        </g>
    </g>
</svg>