<?xml version="1.0" encoding="UTF-8" standalone="no"?>
<svg width="34px" height="34px" viewBox="0 0 34 34" version="1.1" xmlns="http://www.w3.org/2000/svg" xmlns:xlink="http://www.w3.org/1999/xlink">
    <!-- Generator: Sketch 43.2 (39069) - http://www.bohemiancoding.com/sketch -->
    <title>i4 line</title>
    <desc>Created with Sketch.</desc>
    <defs></defs>
    <g id="Page-1" stroke="none" stroke-width="1" fill="none" fill-rule="evenodd">
        <g id="i4-line">
            <g id="Group-26" transform="translate(0.000000, 0.065938)">
                <path d="M27.8083167,0.0958923465 L6.26412222,0.0958923465 C2.88135833,0.0914179983 0.103275,2.8235963 0.0983166667,6.1984323 L0.0983166667,27.6861362 C0.0940666667,31.0612077 2.83366389,33.8322422 6.2169,33.8367166 L27.7613306,33.8367166 C31.1448028,33.8409554 33.9219417,31.1090126 33.9269,27.7334701 L33.9269,6.2455307 C33.9318583,2.87045921 31.1924972,0.100602187 27.8083167,0.0958923465" id="Fill-15" fill="#C4C4C4"></path>
                <path d="M29.2743306,15.482799 C29.2743306,9.98594449 23.7493306,5.51395122 16.9575944,5.51395122 C10.1668028,5.51395122 4.64109444,9.98594449 4.64109444,15.482799 C4.64109444,20.4107048 9.02284444,24.5377023 14.9416778,25.3181228 C15.3428306,25.4040774 15.8887194,25.5818738 16.0268444,25.9235728 C16.1510389,26.2344222 16.1080667,26.7209487 16.0665111,27.0346241 C16.0665111,27.0346241 15.9220111,27.9014701 15.8908444,28.0860959 C15.8372472,28.3964743 15.6434,29.3007637 16.9575944,28.7482994 C18.2722611,28.1958352 24.0508444,24.5826812 26.6348444,21.6161884 L26.6343722,21.6161884 C28.4193722,19.6639596 29.2743306,17.6827653 29.2743306,15.482799" id="Fill-16" fill="#FFFFFF"></path>
                <path d="M14.4551236,12.8264962 L13.5911931,12.8264962 C13.4587347,12.8264962 13.3510681,12.9336451 13.3510681,13.0652851 L13.3510681,18.4180185 C13.3510681,18.549894 13.4587347,18.6568074 13.5911931,18.6568074 L14.4551236,18.6568074 C14.5875819,18.6568074 14.6950125,18.549894 14.6950125,18.4180185 L14.6950125,13.0652851 C14.6950125,12.9336451 14.5875819,12.8264962 14.4551236,12.8264962" id="Fill-17" fill="#C4C4C4"></path>
                <path d="M20.4017,12.8264962 L19.5377694,12.8264962 C19.405075,12.8264962 19.2976444,12.9336451 19.2976444,13.0652851 L19.2976444,16.2453692 L16.8385472,12.9327031 C16.8328806,12.9242254 16.8262694,12.9162187 16.8198944,12.9084474 L16.8182417,12.9070345 C16.8135194,12.9016182 16.8087972,12.8969083 16.8038389,12.8921985 C16.8021861,12.8907855 16.8010056,12.8896081 16.7993528,12.8881951 C16.7953389,12.8844272 16.7910889,12.8808949 16.7863667,12.877598 C16.7847139,12.875714 16.7823528,12.8743011 16.7804639,12.8726526 C16.7762139,12.8698267 16.7719639,12.8667653 16.7677139,12.8641749 C16.7655889,12.8625265 16.7629917,12.8611135 16.7606306,12.8599361 C16.7563806,12.8573457 16.7518944,12.8547553 16.7476444,12.8526358 C16.7452833,12.8514584 16.7426861,12.8500454 16.740325,12.8491034 C16.7358389,12.846984 16.7313528,12.8448646 16.7266306,12.8432161 C16.7235611,12.8422742 16.7214361,12.8413322 16.7186028,12.8403902 C16.7138806,12.8387418 16.7091583,12.8370934 16.7042,12.8359159 C16.7018389,12.8349739 16.6987694,12.8345029 16.6961722,12.833561 C16.69145,12.832619 16.6869639,12.8314415 16.6824778,12.8304996 C16.6789361,12.8300286 16.6756306,12.8295576 16.672325,12.8293221 C16.668075,12.8283802 16.6635889,12.8281447 16.6593389,12.8276737 C16.6555611,12.8272027 16.6515472,12.8272027 16.6472972,12.8269672 C16.6439917,12.8269672 16.6418667,12.8264962 16.6385611,12.8264962 L15.7751028,12.8264962 C15.6426444,12.8264962 15.5349778,12.9336451 15.5349778,13.0652851 L15.5349778,18.4180185 C15.5349778,18.549894 15.6426444,18.6568074 15.7751028,18.6568074 L16.6385611,18.6568074 C16.7714917,18.6568074 16.8789222,18.549894 16.8789222,18.4180185 L16.8789222,15.2388764 L19.341325,18.5557813 C19.358325,18.5798015 19.3793389,18.5993474 19.4022417,18.6148898 C19.40295,18.6153608 19.4036583,18.6160673 19.4043667,18.6167738 C19.4095611,18.6198352 19.4142833,18.6228966 19.4194778,18.6257225 C19.4218389,18.6271354 19.4237278,18.6280774 19.4260889,18.6292548 C19.4298667,18.6313743 19.4336444,18.6332582 19.4376583,18.6349066 C19.4416722,18.6365551 19.4449778,18.6382035 19.4494639,18.639852 C19.451825,18.6407939 19.45395,18.6417359 19.4563111,18.6424424 C19.4622139,18.6445618 19.4674083,18.6462103 19.4726028,18.6478587 C19.4737833,18.6478587 19.4749639,18.6483297 19.4763806,18.6485652 C19.4957417,18.653746 19.5165194,18.6568074 19.5377694,18.6568074 L20.4017,18.6568074 C20.5343944,18.6568074 20.6415889,18.549894 20.6415889,18.4180185 L20.6415889,13.0652851 C20.6415889,12.9336451 20.5343944,12.8264962 20.4017,12.8264962" id="Fill-18" fill="#C4C4C4"></path>
                <path d="M12.3726708,17.3164811 L10.0252542,17.3164811 L10.0252542,13.0656148 C10.0252542,12.9335038 9.91782361,12.8263549 9.78560139,12.8263549 L8.92143472,12.8263549 C8.78897639,12.8263549 8.68154583,12.9335038 8.68154583,13.0656148 L8.68154583,18.4174062 L8.68154583,18.4178772 C8.68154583,18.4821665 8.70728194,18.5403331 8.74860139,18.5831926 C8.74954583,18.5843701 8.75049028,18.5855475 8.75190694,18.586725 C8.7530875,18.5879024 8.75426806,18.5888444 8.75544861,18.5900219 C8.79865694,18.6314685 8.85674028,18.6569016 8.92119861,18.6569016 L8.92143472,18.6569016 L12.3726708,18.6569016 C12.5051292,18.6569016 12.6120875,18.5495172 12.6120875,18.4174062 L12.6120875,17.555741 C12.6120875,17.4236299 12.5051292,17.3164811 12.3726708,17.3164811" id="Fill-19" fill="#C4C4C4"></path>
                <path d="M25.1725847,14.1667754 C25.3050431,14.1667754 25.4120014,14.0598621 25.4120014,13.9275156 L25.4120014,13.0658503 C25.4120014,12.9337393 25.3050431,12.8263549 25.1725847,12.8263549 L21.7213486,12.8263549 L21.7208764,12.8263549 C21.6559458,12.8263549 21.5976264,12.852259 21.5546542,12.8939411 C21.5537097,12.8948831 21.5525292,12.8955896 21.5518208,12.8965315 C21.5504042,12.8979445 21.5492236,12.8993574 21.5478069,12.9007704 C21.5069597,12.9436299 21.4814597,13.001561 21.4814597,13.0656148 L21.4814597,13.0658503 L21.4814597,18.4176417 L21.4814597,18.4178772 C21.4814597,18.4821665 21.5071958,18.5403331 21.5482792,18.5831926 C21.5494597,18.5843701 21.5506403,18.585783 21.5518208,18.586725 C21.5527653,18.5879024 21.5541819,18.5890799 21.5553625,18.5900219 C21.5980986,18.631233 21.6564181,18.6569016 21.7208764,18.6569016 L21.7213486,18.6569016 L25.1725847,18.6569016 C25.3050431,18.6569016 25.4120014,18.5495172 25.4120014,18.4176417 L25.4120014,17.555741 C25.4120014,17.4238654 25.3050431,17.3164811 25.1725847,17.3164811 L22.8254042,17.3164811 L22.8254042,16.4117208 L25.1725847,16.4117208 C25.3050431,16.4117208 25.4120014,16.3045719 25.4120014,16.1724609 L25.4120014,15.3107956 C25.4120014,15.1786846 25.3050431,15.0713003 25.1725847,15.0713003 L22.8254042,15.0713003 L22.8254042,14.1667754 L25.1725847,14.1667754 Z" id="Fill-20" fill="#C4C4C4"></path>
            </g>
        </g>
    </g>
</svg>