<?xml version="1.0" encoding="UTF-8" standalone="no"?>
<svg width="34px" height="33px" viewBox="0 0 34 33" version="1.1" xmlns="http://www.w3.org/2000/svg" xmlns:xlink="http://www.w3.org/1999/xlink">
    <!-- Generator: Sketch 43.2 (39069) - http://www.bohemiancoding.com/sketch -->
    <title>i8 skype</title>
    <desc>Created with Sketch.</desc>
    <defs></defs>
    <g id="Page-1" stroke="none" stroke-width="1" fill="none" fill-rule="evenodd">
        <g id="i8-skype" transform="translate(0.265641, 0.000000)">
            <path d="M31.9208718,20.0535641 C32.1570897,18.9826154 32.2821795,17.8754231 32.2821795,16.7360769 C32.2821795,8.20021795 25.2650256,1.27839744 16.6068974,1.27839744 C15.6940385,1.27839744 14.7983846,1.35666667 13.9274103,1.50432051 C12.5264615,0.633346154 10.8682821,0.128192308 9.09178205,0.128192308 C4.06929487,0.128192308 0,4.14192308 0,9.09432051 C0,10.7479872 0.457205128,12.2971538 1.24878205,13.629141 C1.04062821,14.6322564 0.931474359,15.6718974 0.931474359,16.7360769 C0.931474359,25.2753205 7.94862821,31.9387821 16.6057692,31.9387821 C17.5868846,31.9387821 18.546,31.8495128 19.4759231,31.6804231 C20.7561538,32.3580513 22.2192949,32.999859 23.7738205,32.999859 C28.7957436,32.999859 32.8644744,28.9872564 32.8644744,24.0347179 C32.8644744,22.6058462 32.5246026,21.2534103 31.9208718,20.0535641 Z" id="Fill-1" fill="#C4C4C4"></path>
            <path d="M23.7561923,23.0454231 C23.1513333,23.9052564 22.2661154,24.5811923 21.1003974,25.0666026 C19.9346795,25.5568077 18.5541795,25.7992308 16.9572051,25.7992308 C15.0417949,25.7992308 13.4618846,25.4665513 12.2163462,24.7999231 C11.3349359,24.3212821 10.6171154,23.6800385 10.0645769,22.8812692 C9.51373077,22.0819359 9.23774359,21.3034744 9.23774359,20.5465897 C9.23774359,20.1091282 9.40302564,19.7328718 9.73358974,19.4216282 C10.0645769,19.1065769 10.4865256,18.9511667 10.9971795,18.9511667 C11.4120769,18.9511667 11.7640769,19.0718846 12.0499359,19.3169872 C12.3374872,19.5605385 12.5827308,19.9207179 12.7842564,20.4006282 C13.0316154,20.9707949 13.2977308,21.4461923 13.5864103,21.8273846 C13.8717051,22.2080128 14.2765897,22.5247564 14.7961282,22.7721154 C15.3177821,23.0177821 16.0031667,23.1428718 16.8493205,23.1428718 C18.0137692,23.1428718 18.9607564,22.8943846 19.690141,22.3943077 C20.4172692,21.8962051 20.7830897,21.2704744 20.7830897,20.5240256 C20.7830897,19.9322821 20.5859359,19.448141 20.1936026,19.0817564 C19.7997179,18.7121282 19.2924487,18.4295128 18.6705256,18.2356026 C18.0484615,18.0390128 17.2166923,17.8318462 16.1733846,17.6131154 C14.7796282,17.314 13.6117949,16.9608718 12.6729872,16.560359 C11.7331923,16.1566026 10.9856154,15.609 10.4353333,14.916 C9.88223077,14.2197564 9.60737179,13.3569615 9.60737179,12.3269103 C9.60737179,11.3429744 9.89774359,10.4710128 10.4810256,9.7075 C11.0638846,8.94342308 11.9045385,8.35717949 13.0101795,7.94623077 C14.113,7.53528205 15.4114231,7.3309359 16.901641,7.3309359 C18.0931667,7.3309359 19.1237821,7.46758974 19.9941923,7.73751282 C20.8640385,8.01067949 21.5841154,8.37269231 22.1569615,8.82326923 C22.7310769,9.27441026 23.1513333,9.7465641 23.4151923,10.2428333 C23.6801795,10.736 23.8128846,11.2223974 23.8128846,11.6911667 C23.8128846,12.1214359 23.6483077,12.5113718 23.3177436,12.8557564 C22.9871795,13.2005641 22.5739744,13.3741667 22.0798205,13.3741667 C21.6292436,13.3741667 21.2871154,13.2693846 21.0530128,13.0633462 C20.8189103,12.8557564 20.5649231,12.5168718 20.2928846,12.0454231 C19.9386282,11.3716026 19.5166795,10.8455769 19.0213974,10.4687564 C18.5261154,10.0908077 17.7334103,9.90183333 16.6382051,9.90183333 C15.6246538,9.90183333 14.8048718,10.1051923 14.1823846,10.5172692 C13.5604615,10.9259615 13.2480897,11.4206795 13.2480897,11.9969103 C13.2480897,12.3521538 13.3561154,12.6624103 13.5665256,12.9223205 C13.7769359,13.1840641 14.069,13.4049103 14.4413077,13.5912051 C14.8105128,13.7779231 15.1862051,13.9238846 15.565141,14.0319103 C15.9442179,14.1376795 16.571641,14.2902692 17.4464231,14.4940513 C18.5393718,14.7292821 19.530359,14.9898974 20.4178333,15.2735 C21.3041795,15.5578077 22.060641,15.9043077 22.6825641,16.3075 C23.3039231,16.7140769 23.7908846,17.2296667 24.1390769,17.8521538 C24.4872692,18.4725256 24.6629872,19.2337821 24.6629872,20.135641 C24.6635513,21.2142051 24.359359,22.1848846 23.7561923,23.0454231 Z" id="Fill-2" fill="#FFFFFF"></path>
        </g>
    </g>
</svg>