<?xml version="1.0" encoding="UTF-8" standalone="no"?>
<svg width="34px" height="34px" viewBox="0 0 34 34" version="1.1" xmlns="http://www.w3.org/2000/svg" xmlns:xlink="http://www.w3.org/1999/xlink">
    <!-- Generator: Sketch 43.2 (39069) - http://www.bohemiancoding.com/sketch -->
    <title>i7 slack</title>
    <desc>Created with Sketch.</desc>
    <defs></defs>
    <g id="Page-1" stroke="none" stroke-width="1" fill="none" fill-rule="evenodd">
        <path d="M33.7426626,17.5225405 C33.0789766,16.0372754 31.3327865,15.3682371 29.8488595,16.0319231 L28.4318364,16.6701857 L24.7936059,8.54270806 L26.2159814,7.9097978 C27.6999084,7.24611178 28.3635944,5.49992174 27.6999084,4.01599472 C27.0362224,2.53072963 25.2953847,1.8616913 23.8061053,2.53072963 L22.3904202,3.16363989 L21.75751,1.74661671 C21.093824,0.257337387 19.3476339,-0.406348636 17.8637069,0.257337387 C16.3784418,0.92102341 15.7094035,2.66721345 16.3730895,4.15114047 L17.0113521,5.57351595 L8.88387444,9.20639408 L8.25096418,7.7840186 C7.58727815,6.30009158 5.84108811,5.63640556 4.3571611,6.30009158 C2.87323408,6.9637776 2.20954806,8.70461534 2.87323408,10.1938947 L3.50480627,11.6109178 L2.08912116,12.24249 C0.603856068,12.9115284 -0.0651822613,14.6523661 0.598503762,16.1362931 C1.26352786,17.6215582 3.00837983,18.2905965 4.49364492,17.6269105 L5.91468233,16.9886479 L9.54756046,25.1161256 L8.12518497,25.7490358 C6.64125796,26.4127218 5.97757193,28.1589119 6.64125796,29.6428389 C7.30494398,31.128104 9.04578171,31.7971423 10.535061,31.1321182 L11.9520842,30.4951937 L12.5836564,31.9162311 C13.2486805,33.4014962 14.9935325,34.0651823 16.4787976,33.4014962 C17.9627246,32.7378102 18.6317629,30.9969725 17.9627246,29.5076932 L17.3298143,28.09067 L25.45863,24.4577918 L26.0902022,25.874815 C26.7538882,27.358742 28.5000783,28.0277804 29.9840053,27.358742 C31.4692704,26.7004083 32.1383087,24.9542183 31.4692704,23.4702913 L30.8363601,22.0479158 L32.2533833,21.4163436 C33.7426626,20.7526576 34.4063486,19.0118198 33.7426626,17.5225405 Z M14.9252906,22.7116018 L11.2937505,14.5841242 L19.4158758,10.951246 L23.0541063,19.0747094 L14.9252906,22.7116018 Z" id="i7-slack" fill="#C4C4C4"></path>
    </g>
</svg>