<?xml version="1.0" encoding="UTF-8" standalone="no"?>
<svg width="34px" height="34px" viewBox="0 0 34 34" version="1.1" xmlns="http://www.w3.org/2000/svg" xmlns:xlink="http://www.w3.org/1999/xlink">
    <!-- Generator: Sketch 43.2 (39069) - http://www.bohemiancoding.com/sketch -->
    <title>i10 snapchat</title>
    <desc>Created with Sketch.</desc>
    <defs></defs>
    <g id="Page-1" stroke="none" stroke-width="1" fill="none" fill-rule="evenodd">
        <g id="i10-snapchat">
            <rect id="Rectangle-39" fill="#C4C4C4" x="-1.9597302e-05" y="0" width="33.4900017" height="33.4900017" rx="6"></rect>
            <path d="M16.2871771,26.9175741 C16.2322413,26.9175741 16.178055,26.9164362 16.1242656,26.9138104 C16.0870098,26.9164362 16.0490044,26.9175741 16.0106464,26.9175741 C14.5583754,26.9175741 13.8322619,26.4888164 13.0334886,25.9282847 C12.4909647,25.5477113 12.0233051,25.2194362 11.4902164,25.131689 C11.2076454,25.0853865 10.9284694,25.0614912 10.6602276,25.0614912 C10.1767839,25.0614912 9.78698671,25.1369407 9.50181445,25.192565 C9.30354302,25.2306398 9.1210557,25.2661326 8.96343498,25.2661326 C8.49762717,25.2661326 8.33661154,24.9561508 8.28242528,24.7712909 C8.22863583,24.5887067 8.18913145,24.4124246 8.15152293,24.2417443 C8.12555409,24.122268 8.08000941,23.9160949 8.04090184,23.8156561 C6.25831069,23.5348214 5.31135185,23.1340727 5.06264178,22.5567356 C5.02578278,22.4700825 5.00585423,22.3841734 5.00096027,22.2986582 C4.98363302,21.9909522 5.20262662,21.720577 5.50962328,21.6705108 C8.46866023,21.1869165 9.8084584,18.1593102 9.86414371,18.0304684 C10.0202654,17.7141409 10.0556253,17.4807464 9.98151052,17.3078341 C9.83178186,16.9578957 9.19896222,16.7588562 8.82084885,16.6397301 C8.68540525,16.5971475 8.57513688,16.5620487 8.48748653,16.5276938 C7.35953943,16.0851503 7.20831171,15.5477261 7.28017795,15.1750303 C7.41222663,14.4863571 8.38969555,14.1540118 8.92428331,14.4027237 C9.29415191,14.5744981 9.61957807,14.6618952 9.89121479,14.6618952 C10.0180168,14.6618952 10.1113106,14.6424639 10.1760343,14.6204505 C10.1677455,14.4781732 10.1583544,14.3321321 10.1489192,14.182371 C10.0518777,12.6594211 9.93071917,10.7645194 10.4427771,9.62586281 C11.9522325,6.2651672 15.152837,6.00411383 16.0978999,6.00411383 L16.5396348,6 C17.4865936,6 20.6932384,6.26140348 22.2041487,9.62398095 C22.7151044,10.7600555 22.5950922,12.6557012 22.4984034,14.179045 L22.494259,14.2443849 C22.4863229,14.3724827 22.4780781,14.4979546 22.4709356,14.6200567 C22.5277231,14.6391378 22.6063792,14.6562934 22.7102104,14.6604072 C22.943445,14.6503415 23.2519848,14.5636884 23.5988386,14.4027237 C23.7768287,14.3201845 23.9630637,14.302635 24.0883226,14.302635 C24.2696635,14.302635 24.4558985,14.3381278 24.612417,14.4031176 C25.066541,14.5625505 25.373185,14.9188348 25.381077,15.306848 C25.3897186,15.7960879 24.9784938,16.2065084 24.1590865,16.5276938 C24.0740375,16.5613047 23.9672081,16.5949156 23.8531921,16.6315024 C23.4480077,16.7588562 22.815188,16.9575456 22.6658121,17.3081843 C22.5913005,17.4803526 22.6266604,17.7137907 22.7692466,18.0013214 C22.7722887,18.0080611 22.7831789,18.0308185 22.7858243,18.0371643 C22.924266,18.3613256 24.2204153,21.2171576 27.0650836,21.6824584 C27.3720802,21.7332686 27.5903243,22.0036438 27.5737466,22.3113498 C27.5677504,22.4047425 27.545926,22.4924897 27.5086702,22.5753791 C27.2603569,23.151272 26.3630431,23.5363093 24.606024,23.8137743 C24.5646678,23.9209528 24.5157282,24.1435374 24.4954029,24.2365363 C24.4570448,24.4112867 24.4175404,24.5823609 24.3648532,24.762363 C24.2734553,25.0719509 24.0341804,25.2493271 23.7091069,25.2493271 C23.5480472,25.2493271 23.3734961,25.2284078 23.1504021,25.1847312 C22.8204347,25.1204853 22.4506102,25.0614912 21.9870951,25.0614912 C21.7188092,25.0614912 21.4392804,25.0853865 21.156004,25.131689 C20.6224744,25.21983 20.1333872,25.5634227 19.6156858,25.9271468 C18.6788676,26.5840473 17.5592094,26.9175741 16.2871771,26.9175741" id="Fill-1" fill="#FFFFFF"></path>
        </g>
    </g>
</svg>