<?xml version="1.0" encoding="UTF-8" standalone="no"?>
<svg width="34px" height="34px" viewBox="0 0 34 34" version="1.1" xmlns="http://www.w3.org/2000/svg" xmlns:xlink="http://www.w3.org/1999/xlink">
    <!-- Generator: Sketch 43.2 (39069) - http://www.bohemiancoding.com/sketch -->
    <title>i11 telegram</title>
    <desc>Created with Sketch.</desc>
    <defs></defs>
    <g id="Page-1" stroke="none" stroke-width="1" fill="none" fill-rule="evenodd">
        <g id="i11-telegram">
            <circle id="Oval-12" fill="#C4C4C4" cx="17" cy="17" r="17"></circle>
            <path d="M23.6809515,9.05865261 L7.3786634,15.4115707 C6.85054633,15.6173879 6.88264258,16.3751269 7.42620598,16.5354745 L11.5688959,17.758676 L13.1149323,22.6645212 C13.2763497,23.1769914 13.925697,23.3321901 14.3015575,22.9484393 L16.4433805,20.7614141 L20.6458497,23.8461982 C21.1601253,24.2236635 21.8925216,23.9430888 22.0231132,23.3188167 L24.8064601,10.0117776 C24.9428023,9.35982244 24.3015459,8.81679397 23.6809515,9.05865261 Z M21.6370889,12.0117752 L14.0649145,18.7081233 C13.9894214,18.774723 13.9413439,18.8672003 13.9301102,18.9672336 L13.6386361,21.5588722 C13.6289404,21.6435261 13.5106523,21.6547598 13.4855771,21.5735161 L12.285846,17.7082581 C12.2310149,17.5314613 12.3025628,17.3396862 12.4601019,17.2420601 L21.4022514,11.6959615 C21.6078011,11.5685126 21.8183659,11.8513609 21.6370889,12.0117752 Z" id="Fill-2" fill="#FFFFFF"></path>
        </g>
    </g>
</svg>