<?xml version="1.0" encoding="UTF-8" standalone="no"?>
<svg width="41px" height="34px" viewBox="0 0 41 34" version="1.1" xmlns="http://www.w3.org/2000/svg" xmlns:xlink="http://www.w3.org/1999/xlink">
    <!-- Generator: Sketch 43.2 (39069) - http://www.bohemiancoding.com/sketch -->
    <title>i2 twitter</title>
    <desc>Created with Sketch.</desc>
    <defs></defs>
    <g id="Page-1" stroke="none" stroke-width="1" fill="none" fill-rule="evenodd">
        <path d="M40.0865061,3.94745891 C39.1814524,4.34937585 38.2419365,4.66645361 37.2778899,4.89600676 C38.3401586,3.88509763 39.1388464,2.62066555 39.5894366,1.20933137 C39.718049,0.806419836 39.2810649,0.458012252 38.9177722,0.673740499 C37.5766281,1.47041328 36.1319983,2.06806705 34.6239065,2.45029096 C34.5364103,2.47247049 34.4461334,2.48370944 34.3555585,2.48370944 C34.0808544,2.48370944 33.8137975,2.38156425 33.6037471,2.19617124 C31.9992209,0.779963536 29.9355633,0 27.7930499,0 C26.8659484,0 25.9299085,0.144713969 25.0108514,0.430163516 C22.1633039,1.31465927 19.9661675,3.66698235 19.2768251,6.56921851 C19.0182099,7.65780573 18.9481931,8.74738753 19.0685624,9.80762871 C19.0823671,9.92946693 19.024864,10.014505 18.9894087,10.0543884 C18.9271385,10.1243086 18.8388478,10.1643909 18.7471804,10.1643909 C18.736951,10.1643909 18.7264237,10.1638936 18.7159957,10.162899 C12.4828143,9.58294908 6.86200653,6.57558394 2.88892693,1.69489398 C2.68632519,1.44594617 2.29780657,1.47648032 2.13632107,1.75387363 C1.35829069,3.09061297 0.947128344,4.61950859 0.947128344,6.17525836 C0.947128344,8.55950802 1.90362702,10.8064037 3.56506056,12.4444067 C2.86638252,12.2785078 2.19014957,12.017227 1.56198488,11.6678248 C1.25808228,11.4987432 0.884162903,11.7160628 0.879892376,12.064172 C0.836392592,15.6061334 2.9071015,18.7578147 6.00909296,20.1770062 C5.94662409,20.1784981 5.88415522,20.1791943 5.82158704,20.1791943 C5.32988057,20.1791943 4.8320166,20.1316526 4.34199849,20.037862 C3.99976046,19.9724175 3.71224476,20.2975515 3.81851136,20.6298466 C4.82536253,23.7778478 7.53188335,26.0982443 10.7707303,26.6250827 C8.08268198,28.4321673 4.95238587,29.3853898 1.69437121,29.3853898 L0.678681046,29.384793 C0.365740817,29.384793 0.101067473,29.5890834 0.0213178686,29.8926346 C-0.0572399609,30.1916107 0.087461376,30.5069976 0.354319641,30.6624533 C4.02558225,32.8021314 8.21318134,33.932989 12.4662287,33.932989 C16.1890356,33.932989 19.6714019,33.1931077 22.8166945,31.7340329 C25.7000946,30.3963984 28.2481093,28.4842843 30.3899275,26.050802 C32.3851573,23.7839149 33.9453893,21.1670288 35.0271236,18.2729483 C36.0583069,15.5142326 36.6033453,12.5706212 36.6033453,9.76028586 L36.6033453,9.626413 C36.603246,9.17516401 36.8070395,8.75057025 37.1625857,8.46154015 C38.5117742,7.36449886 39.6866656,6.07311317 40.6544861,4.62328807 C40.9100225,4.2404674 40.507004,3.76067346 40.0865061,3.94745891" id="i2-twitter" fill="#C4C4C4"></path>
    </g>
</svg>