<?xml version="1.0" encoding="UTF-8" standalone="no"?>
<svg width="42px" height="35px" viewBox="0 0 42 35" version="1.1" xmlns="http://www.w3.org/2000/svg" xmlns:xlink="http://www.w3.org/1999/xlink">
    <!-- Generator: Sketch 43.2 (39069) - http://www.bohemiancoding.com/sketch -->
    <title>i3 wechat</title>
    <desc>Created with Sketch.</desc>
    <defs>
        <polygon id="path-1" points="29.9296464 0.015522187 8.58430941e-06 0.015522187 8.5843094e-06 27.8227022 29.9296464 27.8227022 29.9296464 0.015522187"></polygon>
    </defs>
    <g id="Page-1" stroke="none" stroke-width="1" fill="none" fill-rule="evenodd">
        <g id="i3-wechat">
            <g id="Group-3" transform="translate(0.000000, 0.092377)">
                <mask id="mask-2" fill="white">
                    <use xlink:href="#path-1"></use>
                </mask>
                <g id="Clip-2"></g>
                <path d="M22.3032365,8.53015134 C22.3162036,10.2120173 20.1171774,11.2604301 18.8797444,10.1181943 C17.5964429,9.18341367 17.960149,6.90598854 19.4666965,6.43332562 C20.8140591,5.89369556 22.4083276,7.05135505 22.3032365,8.53015134 M11.902122,8.95393168 C11.6045091,10.4150869 9.68103253,11.1198927 8.55778687,10.1406645 C7.25672825,9.20588388 7.62048275,6.88396181 9.15122249,6.41790199 C10.6490608,5.82894587 12.3532589,7.37909494 11.902122,8.95393168 M23.3810976,2.18857416 C19.0990228,-0.267282205 13.7615859,-0.637745068 9.15339979,1.05777052 C6.12651522,2.1683214 3.38422814,4.23168819 1.69086817,7.04253451 C0.155822212,9.57634674 -0.420291771,12.7374524 0.321926126,15.6368984 C1.06457948,18.8557072 3.25450936,21.5524778 5.92233272,23.3550226 C5.42063406,24.8408654 4.925806,26.3262648 4.45952479,27.8227022 C6.14596578,26.9306939 7.81252075,26.0002989 9.49247822,25.0924234 C11.5184815,25.7531758 13.6473985,26.069927 15.7741866,26.0002989 C15.2200392,24.3453381 15.0885786,22.5630461 15.3407585,20.8362397 C15.743898,18.4407474 17.0163614,16.2478813 18.7750404,14.6219445 C21.7361704,11.7978427 25.9347819,10.6045068 29.9296464,10.8921847 C29.1830739,7.16281914 26.6095035,4.00831652 23.3810976,2.18857416" id="Fill-1" fill="#C4C4C4" mask="url(#mask-2)"></path>
            </g>
            <g id="Group-6" transform="translate(15.315333, 11.039046)" fill="#C4C4C4">
                <path d="M19.2709474,8.8679892 C18.839261,9.89437534 17.3301975,10.1305097 16.5858023,9.33670997 C16.2246122,9.00635841 16.1368428,8.50462219 15.9923667,8.06098331 C16.1852756,7.26235447 16.7086505,6.43021741 17.5996507,6.39454102 C18.8327775,6.22231866 19.9145577,7.7460061 19.2709474,8.8679892 M11.0376994,8.70986 C10.6830411,9.84948419 9.05108108,10.1930912 8.26686545,9.3230603 C7.39962207,8.52221401 7.73657157,6.84251627 8.87331651,6.48575235 C10.1375545,5.94390483 11.59175,7.42491858 11.0376994,8.70986 M25.1032124,7.78877835 C24.0582044,5.37741892 22.0849886,3.46779571 19.7960641,2.28594132 C15.7548957,0.197886865 10.7262485,0.21375399 6.69853098,2.33482389 C3.8970213,3.800414 1.560051,6.42361432 0.894377345,9.61556729 C0.346810204,11.9643452 0.839460962,14.4937718 2.06174965,16.5438831 C3.88400587,19.6199371 7.17386009,21.5828778 10.5969652,22.2141134 C13.0762342,22.7273311 15.6390149,22.4264471 18.0460459,21.7123772 C19.487226,22.2859097 20.7791883,23.2092088 22.1789029,23.8920372 C21.8210029,22.6593292 21.4355238,21.4350967 21.0227074,20.2203747 C22.5884775,19.0807998 24.0166905,17.6663097 24.8752731,15.8862352 C26.1525749,13.4074651 26.2291192,10.3379649 25.1032124,7.78877835" id="Fill-4"></path>
            </g>
        </g>
    </g>
</svg>